<svg xmlns="http://www.w3.org/2000/svg" xmlns:xlink="http://www.w3.org/1999/xlink" id="Camada_1" x="0px" y="0px" viewBox="0 0 181.2 23.7" style="enable-background:new 0 0 181.2 23.7;" xml:space="preserve"><style type="text/css">	.st0{fill:#80E0D3;}</style><g>	<g>		<path class="st0" d="M116.1,1.9c-0.6,0.1-1.3,0.1-1.9,0.2v0.2c1.2-0.1,2.4-0.2,3.7-0.4H116.1z"></path>		<path class="st0" d="M114.2,3.1c1.5-0.1,2.9-0.3,4.4-0.5V2.4c-1.5,0.2-2.9,0.4-4.4,0.5V3.1z"></path>		<path class="st0" d="M104.7,2.1c0.5,0.2,1,0.4,1.5,0.5C105.7,2.4,105.2,2.2,104.7,2.1z"></path>		<path class="st0" d="M114.2,3.9c1.5-0.1,2.9-0.2,4.4-0.4V3.3c-1.5,0.2-2.9,0.4-4.4,0.4V3.9z"></path>		<path class="st0" d="M108,3.7c-0.1-0.1-0.3-0.2-0.4-0.3c-1.6-0.3-2.9-0.8-4.1-1.6c0,0,0,0,0,0c-0.2,0-0.3,0-0.5-0.1   c0.1,0.1,0.3,0.2,0.4,0.2C104.6,2.8,106.1,3.3,108,3.7z"></path>		<path class="st0" d="M103.6,2.8c1.5,0.8,3.3,1.3,5.3,1.6c-0.1-0.1-0.2-0.2-0.3-0.3c-1.8-0.3-3.4-0.8-4.9-1.5   c-0.5-0.2-0.9-0.5-1.4-0.8c-0.1-0.1-0.2-0.1-0.3-0.2c-0.1,0-0.2,0-0.2,0c-0.1,0-0.1,0-0.2,0c0.2,0.1,0.4,0.2,0.7,0.4   C102.7,2.3,103.1,2.6,103.6,2.8z"></path>		<path class="st0" d="M114.2,4.6c1.5-0.1,2.9-0.2,4.4-0.4V4c-1.5,0.2-2.9,0.3-4.4,0.4V4.6z"></path>		<path class="st0" d="M104,3.6c1.7,0.7,3.5,1.2,5.5,1.4c-0.1-0.1-0.1-0.2-0.2-0.2c-1.8-0.3-3.5-0.7-5.2-1.4   c-0.5-0.2-1.1-0.4-1.6-0.7c-0.8-0.3-1.5-0.7-2.3-1c-0.1,0-0.3,0-0.4,0.1c0.9,0.3,1.8,0.7,2.7,1.1C103,3.2,103.5,3.4,104,3.6z"></path>		<path class="st0" d="M114.2,5.3c0.2,0,0.5,0,0.7,0c1.2,0,2.4-0.2,3.7-0.3V4.8c-1.5,0.2-2.9,0.3-4.4,0.3V5.3z"></path>		<path class="st0" d="M102.7,3.8c0.6,0.2,1.2,0.4,1.8,0.6c1.7,0.5,3.5,0.9,5.5,1.2c-0.1-0.1-0.1-0.2-0.2-0.2   c-1.8-0.2-3.6-0.6-5.2-1.1c-0.6-0.2-1.2-0.4-1.8-0.6c-1.5-0.5-3-1-4.6-1.3c0,0-0.1,0-0.1,0c-0.1,0-0.3,0.1-0.4,0.1   c0.1,0,0.3,0.1,0.4,0.1C99.7,2.8,101.2,3.3,102.7,3.8z"></path>		<path class="st0" d="M114.2,5.9c0,0,0.1,0,0.1,0c1.4,0,2.8-0.1,4.3-0.2V5.4c-1.5,0.1-2.9,0.2-4.4,0.2V5.9z"></path>		<path class="st0" d="M144.4,1.9h-1.1c-0.9,0.2-1.7,0.3-2.6,0.5c-0.1,0-0.1,0-0.2,0v0.2c0.1,0,0.2,0,0.2,0   C141.9,2.3,143.1,2.1,144.4,1.9z"></path>		<path class="st0" d="M114.2,6.2v0.2c0.3,0,0.6,0,0.9,0c1.1,0,2.3-0.1,3.4-0.1V6C117.2,6.2,115.7,6.2,114.2,6.2z"></path>		<path class="st0" d="M103.1,4.7c0.6,0.2,1.3,0.3,2,0.5c1.7,0.4,3.5,0.7,5.3,0.9c-0.1-0.1-0.1-0.2-0.2-0.2   c-1.7-0.2-3.4-0.5-5.1-0.9c-0.7-0.2-1.3-0.3-2-0.5c-1.7-0.4-3.4-0.8-5.1-1.1c-0.6-0.1-1.2-0.2-1.8-0.2c-0.1,0.1-0.2,0.1-0.3,0.2   c0.7,0.1,1.4,0.2,2.1,0.3C99.7,3.9,101.4,4.3,103.1,4.7z"></path>		<path class="st0" d="M114.5,6.7c-0.1,0-0.2,0-0.3,0v0.2c0.1,0,0.2,0,0.3,0c0.5,0,1,0,1.5,0c0.9,0,1.7,0,2.6-0.1V6.6   C117.2,6.7,115.9,6.7,114.5,6.7z"></path>		<path class="st0" d="M144.8,2.5V2.3c-1,0.2-2,0.4-3,0.6c-0.5,0.1-0.9,0.2-1.4,0.3v0.2c0.5-0.1,0.9-0.2,1.4-0.3   C142.8,2.9,143.8,2.7,144.8,2.5z"></path>		<path class="st0" d="M103.4,5.6c0.7,0.1,1.5,0.2,2.2,0.4c1.7,0.3,3.4,0.5,5.1,0.6c0-0.1-0.1-0.2-0.1-0.2c-1.6-0.2-3.3-0.4-4.9-0.6   c-0.7-0.1-1.5-0.2-2.2-0.4c-1.8-0.3-3.8-0.6-5.6-0.8c-1-0.1-2.1-0.2-3.2-0.3c-0.1,0.1-0.1,0.1-0.2,0.2c1.1,0.1,2.2,0.1,3.4,0.3   C99.7,5,101.6,5.3,103.4,5.6z"></path>		<path class="st0" d="M115.7,7.1c-0.5,0-1,0-1.5,0v0.2c0.5,0,1,0,1.5,0c0.4,0,0.8,0,1.1,0c0.6,0,1.2,0,1.8,0V7.1   C117.6,7.2,116.7,7.2,115.7,7.1z"></path>		<path class="st0" d="M103.9,6.3c0.2,0.1,0.5,0.2,0.7,0.3c0.6,0.1,1.1,0.1,1.7,0.2c1.6,0.2,3.2,0.3,4.8,0.4c0-0.1-0.1-0.1-0.1-0.2   c-1.5-0.1-3-0.2-4.6-0.4C105.5,6.5,104.6,6.4,103.9,6.3z"></path>		<path class="st0" d="M144.8,3.3V3.1c-0.6,0.1-1.2,0.2-1.8,0.3c-0.9,0.2-1.7,0.3-2.6,0.5v0.2c0.9-0.2,1.8-0.3,2.6-0.5   C143.6,3.5,144.2,3.4,144.8,3.3z"></path>		<path class="st0" d="M100.1,6.2c0.2-0.1,0.5-0.1,0.8-0.1c-1.1-0.1-2.2-0.2-3.2-0.3c-1.4-0.1-2.8-0.1-4.2-0.2   c-0.1,0.1-0.1,0.1-0.2,0.2c1.4,0,2.9,0.1,4.3,0.2C98.4,6,99.3,6.1,100.1,6.2z"></path>		<path class="st0" d="M144.8,4V3.8c-0.2,0-0.3,0.1-0.5,0.1c-1.3,0.2-2.6,0.5-3.9,0.7v0.2c1.3-0.2,2.6-0.5,3.9-0.7   C144.5,4.1,144.7,4,144.8,4z"></path>		<path class="st0" d="M129.3,6.7c-0.9,0-1.8,0.1-2.6,0.4c0.9-0.1,1.8-0.3,2.7-0.4C129.4,6.7,129.4,6.7,129.3,6.7z"></path>		<path class="st0" d="M105.6,7.3c0.1,0.1,0.2,0.1,0.3,0.2c0.3,0,0.6,0,0.9,0c1.6,0.1,3.1,0.1,4.5,0.2c0-0.1-0.1-0.1-0.1-0.2   c-1.4,0-2.9-0.1-4.4-0.2C106.4,7.3,106,7.3,105.6,7.3z"></path>		<path class="st0" d="M97.5,7.2c0.2,0,0.4,0,0.6,0c0.1-0.1,0.2-0.1,0.3-0.2c-0.3,0-0.6,0-0.8,0c-1.1,0-2.2,0-3.3-0.1   c-0.6,0-1.1,0-1.7,0c0,0.1-0.1,0.1-0.1,0.2c0.6,0,1.2,0,1.8,0C95.3,7.1,96.4,7.1,97.5,7.2z"></path>		<path class="st0" d="M116.9,7.6c-0.9,0-1.8,0-2.7,0v0.2c0.9,0,1.8,0,2.7,0c0.2,0,0.4,0,0.7,0c0.3,0,0.7,0,1,0V7.6   C118.1,7.6,117.5,7.6,116.9,7.6z"></path>		<path class="st0" d="M110.8,8.1c-1.1,0-2.2,0-3.3,0c-0.3,0-0.7,0-1,0c0.1,0.1,0.1,0.1,0.2,0.2c0.3,0,0.6,0,0.9,0   c0.9,0,1.7,0,2.6,0L110.8,8.1z"></path>		<path class="st0" d="M131.1,6.9c-1.8,0.3-3.7,0.5-5.6,0.7c-0.2,0.1-0.3,0.2-0.5,0.3c2.3-0.2,4.5-0.5,6.6-0.9   C131.4,7,131.3,7,131.1,6.9z"></path>		<path class="st0" d="M144.8,4.5c-1.4,0.3-2.9,0.5-4.4,0.8v0.2c1.5-0.3,2.9-0.5,4.4-0.8V4.5z"></path>		<path class="st0" d="M114.2,8.1v0.2c1.4,0,2.7,0,4,0c0.1,0,0.3,0,0.4,0V8.1c-0.1,0-0.3,0-0.4,0C116.9,8.1,115.6,8.1,114.2,8.1z"></path>		<path class="st0" d="M95.1,8.4c0.6,0,1.1,0,1.7,0c0.1-0.1,0.1-0.1,0.2-0.2c-0.6,0-1.3,0-1.9,0c-1.1,0-2.2,0-3.3,0   c0,0.1-0.1,0.1-0.1,0.2c0.3,0,0.5,0,0.8,0C93.4,8.4,94.3,8.4,95.1,8.4z"></path>		<path class="st0" d="M132.5,7.4c-2.5,0.4-5.2,0.7-8,0.9c-0.1,0.1-0.2,0.2-0.3,0.2c3-0.2,5.9-0.6,8.6-1   C132.7,7.5,132.6,7.4,132.5,7.4z"></path>		<path class="st0" d="M180.2,1.9h-1.5c0.8,0.1,1.6,0.2,2.4,0.4V2C180.8,2,180.5,1.9,180.2,1.9z"></path>		<path class="st0" d="M107.1,9.1C107.1,9.1,107.1,9.1,107.1,9.1l0.9-0.3c-0.3,0-0.7,0-1,0C107,9,107,9.1,107.1,9.1z"></path>		<path class="st0" d="M114.2,8.9c1.5,0,3-0.1,4.4-0.1V8.5c-1.4,0-2.8,0.1-4.4,0.1V8.9z"></path>		<path class="st0" d="M144.8,5.2c-1.4,0.3-2.9,0.5-4.4,0.8v0.2c1.5-0.3,2.9-0.5,4.4-0.8V5.2z"></path>		<path class="st0" d="M96.1,9.6c0-0.1,0.1-0.1,0.1-0.2c-0.1,0-0.1,0-0.2,0c-1.5,0.1-3.1,0.1-4.6,0.1c0,0.1,0,0.1-0.1,0.2   C92.9,9.7,94.4,9.6,96.1,9.6C96,9.6,96.1,9.6,96.1,9.6z"></path>		<path class="st0" d="M176.8,1.9v0.2c1.5,0.2,2.9,0.4,4.4,0.7V2.5C179.7,2.3,178.3,2,176.8,1.9L176.8,1.9z"></path>		<path class="st0" d="M144.8,5.9c-1.5,0.3-2.9,0.5-4.4,0.8v0.2c1.5-0.3,2.9-0.5,4.4-0.8V5.9z"></path>		<path class="st0" d="M114.2,9.5c1.5-0.1,3-0.2,4.4-0.2V9.1c-1.4,0.1-2.8,0.1-4.4,0.2V9.5z"></path>		<path class="st0" d="M133.5,7.9c-3.5,0.5-6.6,0.8-9.6,1c-0.1,0.1-0.2,0.2-0.2,0.2c3.2-0.2,6.5-0.5,10.1-1.1   C133.6,8,133.5,7.9,133.5,7.9z"></path>		<path class="st0" d="M95.7,10.6c-1.5,0.1-3.1,0.2-4.6,0.2c0,0.1,0,0.1,0,0.2c1.5,0,3.1-0.1,4.6-0.2C95.7,10.7,95.7,10.7,95.7,10.6   z"></path>		<path class="st0" d="M134.5,8.6c-0.1-0.1-0.1-0.1-0.2-0.2c-1.7,0.2-3.4,0.5-5.2,0.7c-1.9,0.2-3.9,0.3-5.8,0.3   c-0.1,0.1-0.1,0.1-0.2,0.2c2-0.1,4-0.1,6-0.4C130.9,9.1,132.7,8.9,134.5,8.6z"></path>		<path class="st0" d="M101.8,11.2l0,0.2c1-0.1,1.9-0.2,2.9-0.3h-2C102.4,11.2,102.1,11.2,101.8,11.2z"></path>		<path class="st0" d="M176.8,2.3v0.2c0,0,0,0,0,0c1.5,0.1,2.9,0.4,4.3,0.7V3C179.7,2.7,178.3,2.5,176.8,2.3   C176.8,2.3,176.8,2.3,176.8,2.3z"></path>		<path class="st0" d="M114.2,10.2c1.4-0.1,2.9-0.2,4.4-0.3V9.6c-1.5,0.1-3,0.2-4.4,0.3V10.2z"></path>		<path class="st0" d="M144.8,6.7c-1.5,0.3-2.9,0.5-4.4,0.8v0.2c1.5-0.2,2.9-0.5,4.4-0.8V6.7z"></path>		<path class="st0" d="M95.5,11.8c-1.6,0.1-3.1,0.2-4.5,0.3c0,0.1,0,0.1,0,0.2c1.4-0.1,2.9-0.2,4.5-0.3   C95.5,11.9,95.5,11.9,95.5,11.8z"></path>		<path class="st0" d="M144.8,7.4c-1.5,0.3-2.9,0.5-4.4,0.7v0.2c1.5-0.2,2.9-0.5,4.4-0.7V7.4z"></path>		<path class="st0" d="M110,11.2c-1.3,0.2-2.7,0.3-4,0.5c-1.4,0.2-2.8,0.4-4.2,0.5l0,0.2c1.4-0.2,2.9-0.4,4.3-0.5   c1.3-0.2,2.6-0.3,4-0.5c0.6-0.1,1.3-0.2,1.9-0.2v0h-1.5C110.4,11.2,110.2,11.2,110,11.2z"></path>		<path class="st0" d="M95.5,13c-1.6,0.2-3.1,0.3-4.5,0.4c0,0.1,0,0.1,0,0.2c1.4-0.1,2.9-0.2,4.5-0.4C95.5,13.1,95.5,13,95.5,13z"></path>		<path class="st0" d="M176.8,2.8V3c0.4,0,0.8,0,1.2,0.1c1.1,0.1,2.1,0.3,3.2,0.5V3.4c-1-0.2-2.1-0.4-3.2-0.5   C177.6,2.9,177.2,2.8,176.8,2.8z"></path>		<path class="st0" d="M114.2,10.9c1.4-0.2,2.9-0.3,4.4-0.4v-0.2c-1.5,0.1-3,0.3-4.4,0.4V10.9z"></path>		<path class="st0" d="M149.2,6.7c-1,0-1.9,0.2-2.7,0.6c1.1-0.2,2.1-0.4,3.1-0.6C149.5,6.7,149.4,6.7,149.2,6.7z"></path>		<path class="st0" d="M124.7,10.1c1.8-0.1,3.7-0.1,5.5-0.3c1.7-0.2,3.3-0.4,4.9-0.6c0,0,0,0,0,0C135,9.1,135,9.1,134.9,9   c-1.5,0.2-3.1,0.4-4.7,0.6c-1.8,0.2-3.7,0.3-5.5,0.3c-0.5,0-1.1,0-1.6,0.1c-0.1,0-0.2,0-0.3,0c-0.1,0.1-0.1,0.1-0.2,0.2   c0.1,0,0.3,0,0.4,0C123.6,10.2,124.1,10.2,124.7,10.1z"></path>		<path class="st0" d="M114.2,11.7c1.4-0.2,2.9-0.4,4.4-0.5V11c-1.5,0.2-2.9,0.3-4.4,0.5V11.7z"></path>		<path class="st0" d="M144.8,8.1c-1.5,0.3-2.9,0.5-4.4,0.7v0.2c1.5-0.2,2.9-0.5,4.4-0.7V8.1z"></path>		<path class="st0" d="M106.4,12.6c-1.5,0.2-3,0.5-4.5,0.7l0,0.2c1.5-0.2,3.1-0.4,4.6-0.7c1.3-0.2,2.7-0.4,4-0.6   c0.5-0.1,1-0.1,1.5-0.2v-0.2c-0.5,0.1-1,0.1-1.6,0.2C109.1,12.2,107.7,12.4,106.4,12.6z"></path>		<path class="st0" d="M126.1,10.7c1.7-0.1,3.4-0.1,5.1-0.3c1.5-0.2,3-0.3,4.5-0.6c-0.1-0.1-0.1-0.1-0.2-0.2   c-1.4,0.2-2.9,0.4-4.3,0.5c-1.7,0.2-3.4,0.2-5.1,0.3c-0.7,0-1.4,0.1-2,0.1c-0.6,0-1.2,0.1-1.7,0.1c0,0.1-0.1,0.1-0.1,0.2   c0.6,0,1.3-0.1,1.9-0.1C124.8,10.7,125.4,10.7,126.1,10.7z"></path>		<path class="st0" d="M176.8,3.4v0.2c0.8,0,1.5,0,2.3,0.1c0.7,0.1,1.4,0.2,2.1,0.4V3.8c-0.7-0.1-1.4-0.3-2-0.3   C178.4,3.4,177.6,3.4,176.8,3.4z"></path>		<path class="st0" d="M95.7,14.1c-1.6,0.2-3.1,0.3-4.5,0.4c0,0.1,0,0.1,0,0.2c1.4-0.1,2.9-0.3,4.5-0.4   C95.7,14.2,95.7,14.2,95.7,14.1z"></path>		<path class="st0" d="M151.7,7.1c-0.2,0-0.3-0.1-0.5-0.1c-2,0.4-4,0.7-6,1.1c-0.1,0.1-0.2,0.2-0.3,0.3   C147.2,7.9,149.5,7.5,151.7,7.1C151.7,7.1,151.7,7.1,151.7,7.1z"></path>		<path class="st0" d="M127.3,11.2C127.3,11.2,127.3,11.2,127.3,11.2c0.2-0.1,0.4-0.2,0.6-0.2c-0.2,0-0.4,0-0.6,0   c-0.7,0-1.5,0.1-2.3,0.1c-1,0.1-2,0.1-3,0.2c0,0.1-0.1,0.1-0.1,0.2c1-0.1,2.1-0.2,3.2-0.2C125.7,11.3,126.5,11.2,127.3,11.2z"></path>		<path class="st0" d="M176.8,4v0.2c1.1,0,2.2,0,3.2,0.1c0.4,0.1,0.8,0.1,1.2,0.2V4.3c-0.4-0.1-0.7-0.1-1.1-0.2   C179,4,177.9,4,176.8,4z"></path>		<path class="st0" d="M96,15.1c-1.6,0.2-3.2,0.4-4.6,0.5c0,0.1,0,0.1,0.1,0.2c1.4-0.1,3-0.3,4.6-0.5C96.1,15.3,96,15.2,96,15.1z"></path>		<path class="st0" d="M106.7,13.5c-1.6,0.3-3.2,0.5-4.8,0.8l0,0.2c1.6-0.3,3.2-0.5,4.8-0.8c1.4-0.2,2.8-0.5,4.2-0.7   c0.3-0.1,0.7-0.1,1.1-0.2v-0.2c-0.4,0.1-0.7,0.1-1.1,0.2C109.5,13,108,13.3,106.7,13.5z"></path>		<path class="st0" d="M114.2,12.5c1.4-0.2,2.9-0.4,4.4-0.6v-0.2c-1.5,0.2-3,0.4-4.4,0.6V12.5z"></path>		<path class="st0" d="M152.6,7.7c0.1,0,0.2,0,0.4-0.1c-0.1-0.1-0.2-0.1-0.3-0.2c0,0-0.1,0-0.1,0c-3.7,0.7-7.5,1.3-11.3,1.9   c-0.3,0-0.6,0.1-0.9,0.1v0.2c0.3,0,0.6-0.1,0.9-0.1C145.1,9,148.9,8.4,152.6,7.7z"></path>		<path class="st0" d="M130.4,10.8c0.2,0,0.4,0.1,0.5,0.2c0.4,0,0.8-0.1,1.2-0.1c1.4-0.1,2.7-0.3,4-0.5c0-0.1-0.1-0.1-0.1-0.2   c-1.3,0.2-2.6,0.3-3.9,0.5C131.5,10.8,131,10.8,130.4,10.8z"></path>		<path class="st0" d="M106.9,14.4c-1,0.2-2.1,0.4-3.2,0.6l1.3,0c0.6-0.1,1.3-0.2,1.9-0.3c1.4-0.3,2.9-0.5,4.4-0.8   c0.2,0,0.4-0.1,0.6-0.1c0-0.1,0-0.1,0-0.2c-0.2,0-0.5,0.1-0.7,0.1C109.8,13.9,108.3,14.1,106.9,14.4z"></path>		<path class="st0" d="M126.4,11.9c0.1-0.1,0.2-0.2,0.2-0.2c-0.3,0-0.6,0-0.9,0c-1.4,0.1-2.8,0.2-4.1,0.3c0,0.1-0.1,0.1-0.1,0.2   c1.4-0.2,2.8-0.3,4.2-0.4C126,11.9,126.2,11.9,126.4,11.9z"></path>		<path class="st0" d="M153.4,8.4c0.2,0,0.3-0.1,0.5-0.1c-0.1-0.1-0.2-0.1-0.2-0.2c-0.1,0-0.2,0-0.3,0.1c-3.7,0.6-7.5,1.3-11.3,1.9   c-0.5,0.1-1.1,0.2-1.6,0.3v0.2c0.6-0.1,1.1-0.2,1.7-0.3C145.9,9.7,149.7,9,153.4,8.4z"></path>		<path class="st0" d="M131.6,11.4c0.1,0.1,0.2,0.1,0.2,0.2c0.3,0,0.7-0.1,1-0.1c1.2-0.1,2.5-0.3,3.7-0.4c0-0.1-0.1-0.1-0.1-0.2   c-1.2,0.2-2.4,0.3-3.6,0.4C132.5,11.4,132.1,11.4,131.6,11.4z"></path>		<path class="st0" d="M96.7,16.3c0-0.1-0.1-0.1-0.1-0.2c-0.2,0-0.4,0.1-0.6,0.1c-1.5,0.2-2.9,0.4-4.1,0.5c0,0.1,0.1,0.1,0.1,0.2   c1.3-0.1,2.6-0.3,4.1-0.5C96.2,16.4,96.4,16.4,96.7,16.3z"></path>		<path class="st0" d="M176.8,4.7v0.2c1.3-0.1,2.7-0.1,4,0.1c0.1,0,0.3,0,0.4,0.1V4.8c-0.1,0-0.2,0-0.4-0.1   C179.5,4.6,178.1,4.6,176.8,4.7z"></path>		<path class="st0" d="M114.2,13.3c1.4-0.2,2.9-0.5,4.4-0.7v-0.2c-1.5,0.2-2.9,0.4-4.4,0.7V13.3z"></path>		<path class="st0" d="M132.4,12.1c0.1,0.1,0.1,0.1,0.2,0.2c0.3,0,0.6-0.1,0.9-0.1c1.2-0.1,2.3-0.3,3.5-0.4c0-0.1-0.1-0.1-0.1-0.2   c-1.1,0.1-2.3,0.3-3.4,0.4C133.1,12.1,132.7,12.1,132.4,12.1z"></path>		<path class="st0" d="M97.4,17.2c-0.1-0.1-0.1-0.1-0.2-0.2c0,0,0,0,0,0c-0.5,0.1-1,0.2-1.4,0.2c-1.2,0.2-2.4,0.3-3.5,0.5   c0,0.1,0.1,0.1,0.1,0.2c1.1-0.1,2.2-0.3,3.4-0.5C96.4,17.4,96.9,17.3,97.4,17.2z"></path>		<path class="st0" d="M107.5,15.2c0,0.1-0.1,0.2-0.1,0.2c1.4-0.3,2.9-0.5,4.3-0.8c0.1,0,0.1,0,0.2,0c0-0.1,0-0.1,0-0.2   c-0.1,0-0.2,0-0.3,0.1C110.2,14.7,108.8,14.9,107.5,15.2z"></path>		<path class="st0" d="M154,9.1c0.2,0,0.5-0.1,0.7-0.1c-0.1-0.1-0.1-0.1-0.2-0.2c-0.2,0-0.4,0.1-0.5,0.1c-3.7,0.6-7.5,1.3-11.3,1.9   c-0.7,0.1-1.5,0.2-2.2,0.3v0.2c0.8-0.1,1.5-0.2,2.3-0.4C146.5,10.4,150.3,9.7,154,9.1z"></path>		<path class="st0" d="M126,12.4c-1.5,0.1-3.1,0.2-4.6,0.4c0,0.1,0,0.1-0.1,0.2c1.5-0.2,3-0.3,4.5-0.4   C125.9,12.6,125.9,12.5,126,12.4z"></path>		<path class="st0" d="M167.6,6.8c-0.3,0-0.7-0.1-1.1-0.1c-0.9,0.1-1.8,0.3-2.6,0.4c-0.3,0-0.5,0.1-0.8,0.1   c-0.3,0.1-0.6,0.2-0.8,0.4c0.6-0.1,1.1-0.2,1.7-0.3C165.1,7.2,166.3,7,167.6,6.8z"></path>		<path class="st0" d="M176.8,5.5v0.2c1.5-0.1,2.9-0.2,4.4,0V5.5C179.7,5.3,178.3,5.3,176.8,5.5z"></path>		<path class="st0" d="M114.2,14.2c1.5-0.3,2.9-0.5,4.4-0.7v-0.2c-1.5,0.2-2.9,0.5-4.4,0.7V14.2z"></path>		<path class="st0" d="M169.8,7.3c-0.1-0.1-0.3-0.1-0.5-0.2c-1.8,0.3-3.6,0.5-5.2,0.8c-1.1,0.2-2.2,0.4-3.3,0.5   c-0.1,0.1-0.2,0.2-0.3,0.3c1.2-0.2,2.4-0.4,3.6-0.6C166,7.9,167.9,7.6,169.8,7.3z"></path>		<path class="st0" d="M146.9,11.1c0.6-0.3,1.2-0.4,1.9-0.4c0.2,0,0.3,0,0.5,0c1.7-0.3,3.4-0.6,5-0.9c0.3-0.1,0.6-0.1,1-0.2   c-0.1-0.1-0.1-0.1-0.2-0.2c-0.3,0-0.6,0.1-0.8,0.1c-3.7,0.6-7.5,1.3-11.3,1.9c-0.8,0.1-1.7,0.3-2.6,0.4v0.2   c0.9-0.1,1.8-0.3,2.6-0.4C144.3,11.5,145.6,11.3,146.9,11.1z"></path>		<path class="st0" d="M98.5,18c-0.1-0.1-0.2-0.1-0.3-0.2c-0.8,0.1-1.6,0.3-2.5,0.4c-1,0.2-1.9,0.3-2.8,0.4c0,0.1,0.1,0.1,0.1,0.2   c0.9-0.1,1.8-0.2,2.7-0.4C96.7,18.3,97.6,18.2,98.5,18z"></path>		<path class="st0" d="M132.9,12.9c0,0.1,0.1,0.1,0.1,0.2c0.3,0,0.5,0,0.8-0.1c1.1-0.1,2.3-0.3,3.4-0.4c0-0.1,0-0.1-0.1-0.2   c-1.1,0.1-2.2,0.3-3.3,0.4C133.5,12.8,133.2,12.8,132.9,12.9z"></path>		<path class="st0" d="M176.8,6.3v0.2c1.5-0.1,2.9-0.2,4.4-0.1V6.2C179.7,6.1,178.3,6.1,176.8,6.3z"></path>		<path class="st0" d="M125.5,13.2c-1.4,0.1-2.9,0.3-4.3,0.4c0,0.1,0,0.1,0,0.2c1.4-0.2,2.8-0.3,4.3-0.4   C125.4,13.4,125.5,13.3,125.5,13.2z"></path>		<path class="st0" d="M114.2,15c1.5-0.3,2.9-0.5,4.4-0.8v-0.2c-1.5,0.2-2.9,0.5-4.4,0.8V15z"></path>		<path class="st0" d="M106.9,16.2c-0.1,0.1-0.1,0.2-0.2,0.3c0.2,0,0.3-0.1,0.5-0.1c1.5-0.3,3-0.6,4.5-0.9c0-0.1,0-0.2,0-0.2   c-1.5,0.3-3.1,0.6-4.6,0.9C107.1,16.2,107,16.2,106.9,16.2z"></path>		<path class="st0" d="M100,18.7c-0.2,0-0.3-0.1-0.5-0.1c-1.3,0.2-2.6,0.5-4,0.7c-0.7,0.1-1.4,0.2-2,0.3c0.1,0.1,0.1,0.1,0.2,0.2   c0.6-0.1,1.2-0.2,1.9-0.3C97.1,19.2,98.6,19,100,18.7z"></path>		<path class="st0" d="M171.2,8c-0.1-0.1-0.2-0.1-0.3-0.2c-2.3,0.3-4.6,0.7-6.6,1c-1.5,0.2-2.9,0.5-4.4,0.7   c-0.1,0.1-0.1,0.2-0.2,0.2c1.5-0.3,3.1-0.5,4.6-0.8C166.5,8.7,168.8,8.3,171.2,8z"></path>		<path class="st0" d="M145.6,12.2c0.1-0.1,0.1-0.1,0.2-0.2c0,0,0,0,0,0c-0.9,0.1-1.8,0.3-2.7,0.4c-0.9,0.1-1.8,0.3-2.7,0.4V13   c1-0.1,1.9-0.3,2.7-0.4C144,12.5,144.8,12.3,145.6,12.2z"></path>		<path class="st0" d="M133.3,13.7c0,0.1,0,0.1,0.1,0.2c0.2,0,0.4,0,0.6-0.1c1.2-0.1,2.3-0.3,3.4-0.4c0-0.1,0-0.1,0-0.2   c-1.1,0.1-2.3,0.3-3.4,0.4C133.7,13.6,133.5,13.7,133.3,13.7z"></path>		<path class="st0" d="M176.8,7.1v0.2c1.5-0.1,2.9-0.2,4.4-0.1V7C179.7,6.9,178.3,7,176.8,7.1z"></path>		<path class="st0" d="M150.7,11.1c0.1,0.1,0.2,0.1,0.3,0.2c1.2-0.2,2.4-0.4,3.5-0.6c0.5-0.1,0.9-0.2,1.4-0.2c0-0.1-0.1-0.1-0.1-0.2   c-0.4,0.1-0.9,0.1-1.3,0.2C153.2,10.7,151.9,10.9,150.7,11.1z"></path>		<path class="st0" d="M114.2,15.9c1.4-0.3,2.9-0.5,4.4-0.8v-0.2c-1.5,0.2-3,0.5-4.4,0.8V15.9z"></path>		<path class="st0" d="M125.2,14.1c-1.4,0.1-2.8,0.3-4.1,0.4c0,0.1,0,0.1,0,0.2c1.4-0.2,2.7-0.3,4.1-0.4   C125.2,14.2,125.2,14.2,125.2,14.1z"></path>		<path class="st0" d="M106,17.3c-0.1,0.1-0.2,0.2-0.3,0.3c0.5-0.1,1.1-0.2,1.6-0.3c1.4-0.3,2.8-0.6,4.2-0.8c0-0.1,0-0.2,0.1-0.2   c-1.4,0.3-2.9,0.6-4.3,0.9C106.8,17.1,106.4,17.2,106,17.3z"></path>		<path class="st0" d="M144.9,13.3c0-0.1,0.1-0.2,0.1-0.2c-0.6,0.1-1.2,0.2-1.8,0.3c-0.9,0.1-1.8,0.3-2.7,0.4V14   c1-0.1,1.9-0.3,2.7-0.4C143.7,13.5,144.3,13.4,144.9,13.3z"></path>		<path class="st0" d="M133.5,14.7c0,0.1,0,0.1,0,0.2c0.2,0,0.3,0,0.5,0c1.2-0.1,2.4-0.3,3.6-0.4c0-0.1,0-0.1,0-0.2   c-1.2,0.2-2.4,0.3-3.6,0.4C133.8,14.6,133.6,14.7,133.5,14.7z"></path>		<path class="st0" d="M103.4,18.7c-0.3,0.1-0.6,0.1-0.9,0.2c-2.3,0.4-4.6,0.8-6.9,1.2c-0.5,0.1-0.9,0.1-1.3,0.2   c0.1,0.1,0.1,0.1,0.2,0.2c0.4-0.1,0.8-0.1,1.2-0.2c3.9-0.6,7.8-1.3,11.6-2.1c1.2-0.2,2.5-0.5,3.8-0.7c0-0.1,0.1-0.2,0.1-0.2   c-1.3,0.2-2.6,0.5-3.9,0.7C106,18.2,104.7,18.5,103.4,18.7z"></path>		<path class="st0" d="M172.2,8.7c-0.1-0.1-0.1-0.1-0.2-0.2c-2.8,0.3-5.4,0.8-7.8,1.2c-1.6,0.3-3.2,0.5-4.8,0.8   c0,0.1-0.1,0.2-0.1,0.2c1.6-0.3,3.3-0.6,4.9-0.8C166.7,9.5,169.4,9,172.2,8.7z"></path>		<path class="st0" d="M176.8,8v0.2c1.5-0.1,2.9-0.2,4.4-0.1V7.9C179.7,7.8,178.3,7.9,176.8,8z"></path>		<path class="st0" d="M125.2,15.1c-1.3,0.1-2.7,0.3-4.1,0.4c0,0.1,0,0.1,0,0.2c1.4-0.2,2.7-0.3,4-0.4   C125.2,15.3,125.2,15.2,125.2,15.1z"></path>		<path class="st0" d="M151.7,11.9C151.7,11.9,151.7,11.9,151.7,11.9c0.1,0.1,0.1,0.2,0.2,0.2c0.8-0.2,1.7-0.3,2.5-0.5   c0.6-0.1,1.3-0.2,2-0.4c0-0.1-0.1-0.1-0.1-0.2c-0.6,0.1-1.3,0.2-1.9,0.3C153.5,11.6,152.6,11.7,151.7,11.9z"></path>		<path class="st0" d="M114.2,16.9c1.5-0.3,2.9-0.5,4.4-0.7v-0.2c-1.4,0.2-2.9,0.5-4.4,0.7V16.9z"></path>		<path class="st0" d="M176.8,8.9v0.2c1.5-0.1,2.9-0.1,4.3,0c0,0,0,0,0.1,0V8.9c0,0,0,0,0,0C179.7,8.8,178.3,8.8,176.8,8.9z"></path>		<path class="st0" d="M144.5,14.5c0-0.1,0-0.1,0-0.2c-0.5,0.1-1,0.2-1.6,0.3c-0.8,0.1-1.7,0.3-2.6,0.4v0.2c0.9-0.1,1.8-0.3,2.6-0.4   C143.5,14.6,144,14.5,144.5,14.5z"></path>		<path class="st0" d="M114.2,18c1.5-0.2,2.9-0.5,4.4-0.7v-0.2c-1.5,0.2-2.9,0.4-4.4,0.7V18z"></path>		<path class="st0" d="M125.3,16.3c-1.4,0.1-2.7,0.3-4.1,0.4c0,0.1,0,0.1,0,0.2c1.4-0.2,2.7-0.3,4.1-0.4   C125.4,16.4,125.4,16.4,125.3,16.3z"></path>		<path class="st0" d="M152.4,12.8c0,0.1,0.1,0.1,0.1,0.2c0.5-0.1,1-0.2,1.5-0.3c0.9-0.2,1.8-0.3,2.7-0.5c0-0.1,0-0.1-0.1-0.2   c-0.9,0.2-1.8,0.3-2.6,0.5C153.5,12.6,152.9,12.7,152.4,12.8z"></path>		<path class="st0" d="M95.8,20.8c-0.2,0-0.5,0.1-0.7,0.1c0.1,0.1,0.2,0.1,0.2,0.2c0.2,0,0.3,0,0.5-0.1c3.8-0.5,7.7-1.2,11.4-1.9   c1.1-0.2,2.1-0.4,3.2-0.6c0.1-0.1,0.1-0.2,0.2-0.2c-1.1,0.2-2.3,0.4-3.4,0.6C103.5,19.6,99.6,20.3,95.8,20.8z"></path>		<path class="st0" d="M133.4,15.9c0,0.1,0,0.1,0,0.2c0.1,0,0.2,0,0.3,0c1.3-0.1,2.6-0.3,3.9-0.5c0-0.1,0-0.1,0-0.2   c-1.3,0.2-2.6,0.3-3.9,0.5C133.5,15.9,133.5,15.9,133.4,15.9z"></path>		<path class="st0" d="M164.8,10.7c0.4-0.1,0.9-0.2,1.5-0.2c2.1-0.4,4.4-0.7,6.7-1c0-0.1-0.1-0.1-0.2-0.2c-3.2,0.4-6.4,0.9-9.1,1.4   c-1.5,0.3-3,0.5-4.5,0.8c0,0.1,0,0.1,0,0.2c1.5-0.3,3.1-0.6,4.6-0.8C164.1,10.8,164.4,10.8,164.8,10.7z"></path>		<path class="st0" d="M144.6,15.6c0-0.1,0-0.1,0-0.2c-0.7,0.1-1.4,0.3-2.1,0.4c-0.7,0.1-1.3,0.2-2,0.4v0.2c0.7-0.1,1.4-0.2,2.1-0.4   C143.2,15.9,143.9,15.8,144.6,15.6z"></path>		<path class="st0" d="M114.2,19.1c1.5-0.2,2.9-0.4,4.4-0.6v-0.2c-1.5,0.2-2.9,0.4-4.4,0.6V19.1z"></path>		<path class="st0" d="M126,17.6c-1.5,0.1-2.9,0.2-4.4,0.4c0,0.1,0.1,0.1,0.1,0.2c1.5-0.2,3-0.3,4.5-0.4   C126.1,17.7,126.1,17.6,126,17.6z"></path>		<path class="st0" d="M132.8,17.2c0,0.1-0.1,0.2-0.2,0.2c0.2,0,0.5,0,0.7-0.1c1.3-0.1,2.7-0.3,3.9-0.5c0-0.1,0-0.1,0-0.2   c-1.3,0.2-2.6,0.4-4,0.5C133.2,17.2,133,17.2,132.8,17.2z"></path>		<path class="st0" d="M96,21.6C96,21.6,96,21.6,96,21.6c0.1,0.1,0.1,0.1,0.2,0.2c3.7-0.5,7.4-1,10.9-1.6c0.8-0.1,1.5-0.2,2.3-0.3   c0.1-0.1,0.1-0.2,0.2-0.2c-0.9,0.1-1.7,0.3-2.5,0.4C103.5,20.5,99.7,21.1,96,21.6z"></path>		<path class="st0" d="M168.5,10.8c0.1,0.1,0.2,0.1,0.3,0.2c1.2-0.2,2.4-0.4,3.6-0.5c0.3,0,0.6-0.1,1-0.1c0-0.1-0.1-0.1-0.1-0.2   c-0.3,0-0.6,0.1-0.9,0.1C171.2,10.4,169.8,10.6,168.5,10.8z"></path>		<path class="st0" d="M163,12c0.1,0,0.3-0.1,0.4-0.1c0-0.1,0.1-0.2,0.1-0.2c-0.2,0-0.4,0.1-0.6,0.1c-0.7,0.1-1.3,0.3-2,0.4l1.2,0   C162.4,12.1,162.7,12,163,12z"></path>		<path class="st0" d="M176.8,9.8v0.2c1.2-0.1,2.4,0,3.6,0.1c0.2,0,0.5,0.1,0.7,0.1V10c-0.2,0-0.5-0.1-0.7-0.1   C179.3,9.8,178,9.8,176.8,9.8z"></path>		<path class="st0" d="M152.9,13.8c0,0.1,0,0.1,0.1,0.2c0.2,0,0.4-0.1,0.6-0.1c1.1-0.2,2.3-0.5,3.5-0.7c0-0.1,0-0.1,0-0.2   c-1.2,0.2-2.3,0.5-3.5,0.7C153.2,13.7,153.1,13.7,152.9,13.8z"></path>		<path class="st0" d="M114.2,20.4c1.4-0.2,2.9-0.3,4.4-0.5v-0.2c-1.5,0.2-2.9,0.3-4.4,0.5V20.4z"></path>		<path class="st0" d="M153,15C153,15,153,15,153,15c1.3-0.2,2.7-0.5,4-0.8c0-0.1,0-0.1,0-0.2c-1.4,0.3-2.7,0.6-4,0.9   C153,14.9,153,14.9,153,15z"></path>		<path class="st0" d="M97.1,22.2c0.1,0.1,0.3,0.1,0.4,0.2c3.2-0.4,6.5-0.8,9.6-1.1c0.3,0,0.7-0.1,1-0.1c0.1-0.1,0.2-0.2,0.3-0.3   c-0.5,0.1-0.9,0.1-1.3,0.2C103.8,21.4,100.4,21.8,97.1,22.2z"></path>		<path class="st0" d="M169.4,11.5c0,0.1,0.1,0.1,0.1,0.2c0.7-0.1,1.4-0.2,2.1-0.3c0.7-0.1,1.4-0.2,2.1-0.2c0-0.1,0-0.1,0-0.2   c-0.7,0.1-1.4,0.1-2.1,0.2C170.9,11.3,170.2,11.4,169.4,11.5z"></path>		<path class="st0" d="M131.2,18.8c-0.2,0.1-0.4,0.2-0.6,0.2c0.8,0,1.7-0.1,2.5-0.2c1.3-0.1,2.6-0.3,3.8-0.5c0-0.1,0.1-0.2,0.1-0.2   c-1.3,0.2-2.6,0.4-3.9,0.5C132.4,18.7,131.8,18.8,131.2,18.8z"></path>		<path class="st0" d="M176.8,10.8v0.2c0.8,0,1.6,0,2.4,0.1c0.7,0.1,1.3,0.2,1.9,0.3v-0.2c-0.6-0.2-1.3-0.3-1.9-0.3   C178.4,10.9,177.6,10.8,176.8,10.8z"></path>		<path class="st0" d="M144.9,16.8c0-0.1-0.1-0.1-0.1-0.2c-1,0.2-2,0.4-3,0.6c-0.5,0.1-0.9,0.2-1.4,0.3v0.2c0.5-0.1,1-0.2,1.5-0.3   C142.9,17.2,143.9,17,144.9,16.8z"></path>		<path class="st0" d="M128.4,19.2c-0.2,0-0.4-0.1-0.6-0.2c-0.6,0-1.3,0.1-1.9,0.1c-1.2,0.1-2.4,0.2-3.6,0.3c0,0.1,0.1,0.1,0.1,0.2   c1.1-0.1,2.3-0.2,3.4-0.3C126.7,19.2,127.6,19.2,128.4,19.2z"></path>		<path class="st0" d="M176.8,11.9v0.2c0.4,0,0.8,0,1.2,0.1c1.1,0.1,2.2,0.3,3.2,0.7v-0.2c-1.1-0.3-2.2-0.5-3.2-0.7   C177.6,12,177.2,11.9,176.8,11.9z"></path>		<path class="st0" d="M152.9,16c0,0.1,0,0.2-0.1,0.2c1.4-0.3,2.8-0.7,4.2-1c0-0.1,0-0.1,0-0.2c0,0,0,0,0,0   C155.7,15.3,154.3,15.6,152.9,16z"></path>		<path class="st0" d="M99.5,23c2.2-0.2,4.3-0.4,6.4-0.6c0.2-0.1,0.4-0.2,0.6-0.3c-2.5,0.2-5.1,0.4-7.7,0.7   C99,22.9,99.2,22.9,99.5,23z"></path>		<path class="st0" d="M161.2,14.3c1.5-0.3,3.3-0.7,5.1-1h-1.1c-1.4,0.3-2.7,0.6-4,0.8c-0.1,0-0.1,0-0.2,0c-0.2,0.1-0.4,0.2-0.5,0.3   C160.7,14.4,161,14.3,161.2,14.3z"></path>		<path class="st0" d="M114.2,21.7c1.4-0.1,2.9-0.2,4.4-0.4v-0.2c-1.5,0.1-2.9,0.2-4.4,0.4V21.7z"></path>		<path class="st0" d="M127.8,20.6c-0.8,0-1.6,0.1-2.4,0.1c-0.6,0-1.3,0.1-1.9,0.1c0.1,0.1,0.1,0.1,0.2,0.2c0.6,0,1.1-0.1,1.7-0.1   c0.8,0,1.6-0.1,2.4-0.1c1.6-0.1,3.2-0.1,4.8-0.3c1.1-0.1,2.2-0.3,3.3-0.5c0.1-0.1,0.1-0.2,0.2-0.2c-1.1,0.2-2.3,0.4-3.5,0.5   C131,20.5,129.4,20.5,127.8,20.6z"></path>		<path class="st0" d="M169.7,12.4C169.7,12.4,169.7,12.5,169.7,12.4l0,0.2c0.2,0,0.5-0.1,0.7-0.1c1.1-0.2,2.3-0.3,3.4-0.4V12   c-1.2,0.1-2.3,0.2-3.5,0.4C170.1,12.4,169.9,12.4,169.7,12.4z"></path>		<path class="st0" d="M145.7,17.9c-0.1-0.1-0.1-0.1-0.2-0.2c-1.4,0.3-2.8,0.6-4.2,0.9c-0.3,0.1-0.6,0.1-0.9,0.2v0.2   c0.3-0.1,0.7-0.1,1-0.2C142.8,18.6,144.3,18.3,145.7,17.9z"></path>		<path class="st0" d="M126.8,22.3c-0.4,0-0.7,0-1.1,0c0.1,0.1,0.3,0.1,0.4,0.2c0.2,0,0.5,0,0.7,0c1.7-0.1,3.4-0.1,5.1-0.4   c0.7-0.1,1.3-0.2,1.9-0.3c0.1-0.1,0.3-0.2,0.4-0.3c-0.8,0.1-1.6,0.3-2.4,0.4C130.2,22.2,128.4,22.3,126.8,22.3z"></path>		<path class="st0" d="M147,18.9c-0.1,0-0.2-0.1-0.3-0.1c-2,0.5-4.1,1.1-6.2,1.5c0,0-0.1,0-0.1,0v0.2c0.1,0,0.1,0,0.2,0   C142.7,20,144.9,19.4,147,18.9z"></path>		<path class="st0" d="M176.8,13.4c1.5,0.2,3,0.6,4.4,1.1v-0.2c-1.5-0.5-3-0.9-4.4-1.1V13.4z"></path>		<path class="st0" d="M114.2,23h3c0.5,0,0.9,0,1.4-0.1v-0.2C117.2,22.8,115.7,22.8,114.2,23L114.2,23z"></path>		<path class="st0" d="M152.2,17.5c1.6-0.4,3.2-0.9,4.8-1.3c0-0.1,0-0.2,0-0.2c-1.6,0.4-3.1,0.8-4.7,1.2   C152.3,17.3,152.3,17.4,152.2,17.5z"></path>		<path class="st0" d="M159.6,15.4C159.6,15.4,159.6,15.4,159.6,15.4c-0.1,0.1-0.2,0.2-0.2,0.3c0.1,0,0.2,0,0.3-0.1   c2.7-0.7,6-1.4,9.3-1.9c1.5-0.2,3.1-0.4,4.8-0.5V13c-1.7,0-3.4,0.2-4.8,0.5C165.6,14,162.4,14.7,159.6,15.4z"></path>		<path class="st0" d="M176.8,14.7c1.5,0.3,2.9,0.8,4.4,1.4v-0.2c-1.5-0.6-3-1.1-4.4-1.4V14.7z"></path>		<path class="st0" d="M149.2,19.3c-2.9,0.8-5.8,1.7-8.8,2.5V22c3.1-0.8,6.2-1.7,9.3-2.6c2.3-0.7,4.7-1.4,7.1-2.1   c0-0.1,0-0.2,0.1-0.2c-2.1,0.6-4.2,1.2-6.2,1.8C150.2,19.1,149.7,19.2,149.2,19.3z"></path>		<path class="st0" d="M166.8,14.6c-2.7,0.5-5.3,1.2-7.8,1.8c0,0.1,0,0.2-0.1,0.2c0,0,0,0,0,0c4.6-1.2,9.8-2.6,14.8-2.4v-0.2   C171.7,14,169.4,14.2,166.8,14.6z"></path>		<path class="st0" d="M158.8,17.4c0,0.1,0,0.2,0,0.2c4.5-1.3,9.5-2.6,14.2-2.1c0.3,0,0.5,0.1,0.8,0.1v-0.2c-0.3,0-0.5-0.1-0.8-0.1   C168.3,14.8,163.3,16.1,158.8,17.4z"></path>		<path class="st0" d="M144.9,21.8c0.1,0.1,0.1,0.1,0.2,0.2c1.1-0.4,2.2-0.7,3.3-1.1c2.6-0.8,5.3-1.7,8-2.5c0-0.1,0.1-0.2,0.1-0.3   c-2.7,0.8-5.5,1.7-8.2,2.6C147.3,21,146.1,21.4,144.9,21.8z"></path>		<path class="st0" d="M176.8,16.3c1.6,0.5,3,1.1,4.4,1.7v-0.2c-1.3-0.6-2.8-1.2-4.4-1.7V16.3z"></path>		<path class="st0" d="M141.7,23c1-0.3,2.1-0.6,3.1-1v-0.2c-1.3,0.4-2.5,0.8-3.8,1.2H141.7z"></path>		<path class="st0" d="M176.8,17.8V18c1.1,0.4,2.2,0.8,3.1,1.3c0.4,0.2,0.8,0.4,1.2,0.5v-0.2c-0.4-0.2-0.8-0.3-1.1-0.5   C179,18.7,177.9,18.2,176.8,17.8z"></path>		<path class="st0" d="M163.6,17c-1.6,0.3-3.2,0.8-4.8,1.3c0,0.1,0,0.1,0,0.2c1.5-0.5,3-0.9,4.6-1.2C163.4,17.2,163.5,17.1,163.6,17   z"></path>		<path class="st0" d="M169.7,16.4c0,0.1,0,0.1,0,0.2c0.5,0,1.1,0,1.6,0.1c0.9,0.1,1.7,0.3,2.6,0.5v-0.2c-0.8-0.2-1.7-0.4-2.5-0.4   C170.7,16.4,170.2,16.4,169.7,16.4z"></path>		<path class="st0" d="M155.4,19.3c-2.8,0.9-5.5,1.9-8.2,2.8c-0.3,0.1-0.7,0.2-1,0.4c0.1,0,0.2,0.1,0.3,0.1c0.3-0.1,0.6-0.2,0.8-0.3   c2.7-1,5.5-1.9,8.2-2.8l0.2-0.1c0.1,0,0.2-0.1,0.3-0.1c0.1-0.1,0.1-0.2,0.2-0.3c-0.2,0.1-0.4,0.1-0.5,0.2L155.4,19.3z"></path>		<path class="st0" d="M169.3,17.6c0,0.1-0.1,0.1-0.1,0.2c0.1,0,0.2,0,0.3,0c1.5,0.2,3,0.5,4.4,0.9v-0.2c-1.4-0.4-2.9-0.8-4.3-0.9   C169.4,17.6,169.3,17.6,169.3,17.6z"></path>		<path class="st0" d="M147.6,23c0.1,0,0.3,0.1,0.4,0.1c2-0.8,4-1.5,6-2.2c0.4-0.1,0.8-0.3,1.2-0.4c0.1-0.1,0.2-0.2,0.3-0.3   c-0.5,0.2-1.1,0.4-1.6,0.6C151.8,21.4,149.6,22.2,147.6,23z"></path>		<path class="st0" d="M163.2,17.9c-1.5,0.3-2.9,0.6-4.3,1.1c0,0.1,0,0.1,0,0.2c1.4-0.4,2.8-0.8,4.3-1.1   C163.2,18.1,163.2,18,163.2,17.9z"></path>		<path class="st0" d="M176.8,19.6v0.2c0.6,0.2,1.1,0.4,1.7,0.7c0.9,0.4,1.8,0.8,2.7,1.2v-0.2c-0.9-0.4-1.7-0.8-2.6-1.1   C178,20,177.4,19.8,176.8,19.6z"></path>		<path class="st0" d="M176.8,21.4v0.2c0.1,0,0.1,0.1,0.2,0.1c1,0.4,2.1,0.9,3.1,1.3h0.5c-1.2-0.5-2.3-1-3.5-1.5   C177,21.4,176.9,21.4,176.8,21.4z"></path>		<path class="st0" d="M149.4,23.2c0.2,0,0.4,0,0.6,0c0.8-0.3,1.6-0.6,2.4-1c0.5-0.2,1-0.4,1.6-0.6c0.2-0.1,0.3-0.3,0.5-0.4   c-0.7,0.3-1.5,0.6-2.1,0.8C151.3,22.4,150.4,22.8,149.4,23.2z"></path>		<path class="st0" d="M163.3,18.8c-1.1,0.1-2.3,0.4-3.6,0.7c-0.2,0.1-0.5,0.1-0.7,0.2c0,0.1,0,0.1,0.1,0.2c1.4-0.4,2.9-0.7,4.4-0.9   C163.4,18.9,163.4,18.9,163.3,18.8z"></path>		<path class="st0" d="M167.7,19c2.1,0.3,4.1,0.8,6,1.5v-0.2c-1.9-0.6-3.8-1.2-5.8-1.4C167.9,18.9,167.8,18.9,167.7,19z"></path>		<path class="st0" d="M159.3,20.4c0,0.1,0.1,0.1,0.1,0.2c2.1-0.5,4.2-0.7,6.3-0.5c2.8,0.3,5.5,1.1,8.1,2.1V22   c-2.6-1-5.3-1.8-8.1-2.1C163.7,19.7,161.6,19.8,159.3,20.4z"></path>		<path class="st0" d="M159.7,21.1c0,0.1,0.1,0.1,0.1,0.2c1.4-0.2,2.7-0.2,4.1-0.1c1.6,0.2,3.2,0.5,4.8,1c0.1-0.1,0.2-0.1,0.2-0.2   c-1.6-0.5-3.3-0.8-5-1C162.6,20.9,161.2,20.9,159.7,21.1z"></path>		<path class="st0" d="M169.7,22.5c0.5,0.2,1.1,0.3,1.6,0.5h0.7c-0.7-0.3-1.5-0.5-2.2-0.7V22.5z"></path>		<path class="st0" d="M160.6,22c0.1,0.1,0.2,0.1,0.3,0.2c0.4,0,0.9,0,1.3,0.1c1.4,0.2,2.7,0.4,4.1,0.8c0.2,0,0.3-0.1,0.5-0.1   c-1.5-0.4-3-0.7-4.5-0.9C161.7,22.1,161.2,22,160.6,22z"></path>		<path class="st0" d="M35.1,1.1c-1.1-0.2-2.2-0.4-3.3-0.7c-0.1,0-0.2,0.1-0.3,0.2c1.3,0.3,2.5,0.5,3.8,0.8   C35.2,1.3,35.2,1.2,35.1,1.1z"></path>		<path class="st0" d="M30.5,2.1c1.7,0.4,3.5,0.8,5.2,1.2c0-0.1,0-0.1,0-0.2c-1.7-0.4-3.5-0.8-5.2-1.2C30.5,1.9,30.5,2,30.5,2.1z"></path>		<path class="st0" d="M24.6,1.9c-0.1,0-0.3-0.1-0.4-0.1h-0.8c0.4,0.1,0.7,0.2,1.1,0.3c0.4,0.1,0.9,0.2,1.3,0.4   c0.6,0.2,1.2,0.3,1.8,0.5V2.7c-0.6-0.2-1.1-0.3-1.7-0.5C25.5,2.1,25.1,2,24.6,1.9z"></path>		<path class="st0" d="M34.9,4.7C35,4.7,35,4.7,34.9,4.7c-1.5-0.4-3-0.8-4.5-1.2c0,0.1,0,0.2,0.1,0.2c1.4,0.4,2.8,0.7,4.3,1.1   C34.8,4.8,34.9,4.7,34.9,4.7z"></path>		<path class="st0" d="M49.9,7.1c-0.1,0-0.2-0.1-0.3-0.1c-2.1,0.6-4.2,1-6.3,0.8C43.2,7.9,43.2,8,43.1,8c0.4,0,0.8,0,1.1,0   C46.1,8.1,48,7.7,49.9,7.1z"></path>		<path class="st0" d="M58.4,3.4c-0.1,0-0.1,0.1-0.2,0.1l0,0.2c0.2-0.1,0.5-0.2,0.7-0.3H58.4z"></path>		<path class="st0" d="M42.7,8V7.8c-0.1,0-0.1,0-0.2,0c-1.4-0.2-2.8-0.4-4.2-0.7v0.2c1.4,0.3,2.8,0.5,4.1,0.7C42.6,8,42.6,8,42.7,8z   "></path>		<path class="st0" d="M24.3,3.2c-0.3-0.1-0.7-0.2-1-0.3v0.2c0.3,0.1,0.6,0.2,0.9,0.3c0.5,0.1,0.9,0.3,1.4,0.4   c0.7,0.2,1.4,0.4,2,0.6V4.2c-0.7-0.2-1.3-0.4-2-0.6C25.2,3.5,24.7,3.4,24.3,3.2z"></path>		<path class="st0" d="M60.7,3.4c-0.8,0.4-1.6,0.9-2.5,1.3l0,0.2c1-0.5,2-1,2.9-1.5H60.7z"></path>		<path class="st0" d="M30.8,6.9L30.8,6.9c1.4,0.5,2.9,0.9,4.4,1.3V7.9c-1.3-0.3-2.5-0.7-3.7-1H30.8z"></path>		<path class="st0" d="M44,9.7c1.7,0,3.4-0.3,5.4-0.9c0.7-0.2,1.4-0.5,2.1-0.7c-0.1-0.1-0.1-0.1-0.2-0.2c-2.9,1.1-5.9,1.8-8.8,1.5   c-1.4-0.2-2.8-0.4-4.1-0.7v0.2c1.4,0.3,2.7,0.5,4.1,0.7C42.9,9.6,43.5,9.7,44,9.7z"></path>		<path class="st0" d="M23.8,4.4c-0.2-0.1-0.3-0.1-0.5-0.2v0.2c0.2,0,0.3,0.1,0.5,0.1c0.5,0.2,1.1,0.4,1.6,0.5   c0.8,0.2,1.5,0.5,2.3,0.7V5.7c-0.7-0.2-1.5-0.5-2.2-0.7C24.9,4.8,24.3,4.6,23.8,4.4z"></path>		<path class="st0" d="M16.5,3.2c-0.1,0-0.2-0.1-0.2-0.1c-1.4-0.5-2.8-1-4.2-1.5c-0.3,0-0.6-0.1-0.8-0.1c1.9,0.7,3.8,1.3,5.7,2   C16.9,3.5,16.7,3.3,16.5,3.2z"></path>		<path class="st0" d="M62.5,3.4c-1.4,0.8-2.9,1.6-4.3,2.4l0,0.2c1.5-0.8,2.9-1.6,4.3-2.4L62.5,3.4z"></path>		<path class="st0" d="M30.8,8.3c1.4,0.5,2.9,0.9,4.4,1.3V9.4c-1.5-0.4-2.9-0.8-4.4-1.3V8.3z"></path>		<path class="st0" d="M56.6,6.9h-0.5C56,7,55.9,7,55.7,7.1c-0.1,0-0.2,0.1-0.3,0.1v0.2c0.1-0.1,0.2-0.1,0.4-0.2   C56.1,7.2,56.3,7,56.6,6.9z"></path>		<path class="st0" d="M52.4,8.9c0-0.1-0.1-0.1-0.1-0.2c-2,0.9-4.1,1.6-6.2,1.9c0.1,0,0.2,0,0.2,0c0.2,0,0.4,0,0.6,0.1   c0.8-0.2,1.5-0.4,2.4-0.6C50.4,9.8,51.4,9.4,52.4,8.9z"></path>		<path class="st0" d="M23.3,5.6C23.3,5.5,23.3,5.5,23.3,5.6l-0.1,0.2c0.6,0.2,1.2,0.4,1.8,0.6c0.9,0.3,1.7,0.6,2.6,0.9V7   c-0.8-0.3-1.7-0.6-2.5-0.9C24.6,6,23.9,5.8,23.3,5.6z"></path>		<path class="st0" d="M42.3,10.8c-1.3-0.2-2.6-0.4-3.9-0.7v0.2c1.3,0.3,2.6,0.5,3.9,0.6c0.5,0.1,1,0.1,1.5,0.1c0.3,0,0.6,0,0.9,0   c0.2-0.1,0.5-0.2,0.8-0.3C44.4,10.9,43.3,10.9,42.3,10.8z"></path>		<path class="st0" d="M30.8,9.2v0.2c0.9,0.3,1.8,0.6,2.8,0.9c0.5,0.2,1.1,0.3,1.6,0.5v-0.2c-0.5-0.1-1-0.3-1.5-0.4   C32.7,9.8,31.8,9.5,30.8,9.2z"></path>		<path class="st0" d="M62.5,4.6l0-0.2c-1.4,0.8-2.9,1.7-4.3,2.5l0,0h0c-0.8,0.5-1.7,0.9-2.5,1.4c-0.1,0-0.1,0.1-0.2,0.1v0.2   c0.1,0,0.2-0.1,0.3-0.1C58,7.2,60.3,5.9,62.5,4.6z"></path>		<path class="st0" d="M38.3,11.4v0.2c1.3,0.3,2.5,0.5,3.8,0.6c0.4,0,0.8,0.1,1.2,0.1c0-0.1,0.1-0.1,0.1-0.2c-0.4,0-0.9,0-1.3-0.1   C40.9,11.9,39.6,11.7,38.3,11.4z"></path>		<path class="st0" d="M23.3,6.9c1.4,0.5,2.9,1,4.4,1.5V8.2c-1.5-0.5-3-1-4.4-1.5V6.9z"></path>		<path class="st0" d="M18.9,5.3c-0.1-0.1-0.2-0.2-0.3-0.3c-0.5-0.2-1.1-0.4-1.6-0.6c-2.5-0.9-5-1.8-7.6-2.7c-0.2,0-0.3,0-0.5,0.1   c2.7,0.9,5.3,1.9,7.9,2.9C17.5,4.8,18.2,5.1,18.9,5.3z"></path>		<path class="st0" d="M52.9,9.6c-1.5,0.7-3,1.3-4.6,1.8c0.1,0.1,0.1,0.1,0.2,0.2c1.6-0.5,3.1-1.1,4.6-1.8C53,9.7,53,9.7,52.9,9.6z"></path>		<path class="st0" d="M23.3,7.7v0.2c0,0,0,0,0,0c1.4,0.5,2.9,1,4.4,1.6V9.2C26.2,8.7,24.8,8.2,23.3,7.7C23.3,7.7,23.3,7.7,23.3,7.7   z"></path>		<path class="st0" d="M62.5,5.5l0-0.3c-2.2,1.4-4.6,2.7-6.9,4c0,0-0.1,0.1-0.1,0.1v0.2c0.1,0,0.2-0.1,0.2-0.1   C58,8.2,60.3,6.9,62.5,5.5z"></path>		<path class="st0" d="M19.8,6.6c-0.1-0.1-0.1-0.2-0.2-0.3c-0.9-0.3-1.8-0.7-2.7-1c-3-1.1-6-2.3-9.1-3.3C7.7,2,7.6,2,7.5,2.1   c3.2,1.1,6.3,2.3,9.4,3.4C17.8,5.9,18.8,6.2,19.8,6.6z"></path>		<path class="st0" d="M30.8,10.3v0.2c0.9,0.3,1.8,0.6,2.7,0.8c0.5,0.2,1.1,0.3,1.6,0.5v-0.2c-0.5-0.1-1-0.3-1.6-0.5   C32.7,10.9,31.7,10.6,30.8,10.3z"></path>		<path class="st0" d="M53.3,10.4c-1.4,0.7-2.9,1.3-4.4,1.8c0,0.1,0.1,0.1,0.1,0.2c1.5-0.5,2.9-1.1,4.4-1.8   C53.4,10.6,53.4,10.5,53.3,10.4z"></path>		<path class="st0" d="M38.3,12.4v0.2c1.2,0.3,2.4,0.5,3.5,0.6c0.3,0,0.7,0.1,1,0.1c0-0.1,0-0.1,0.1-0.2c-0.4,0-0.7,0-1.1-0.1   C40.7,12.9,39.5,12.7,38.3,12.4z"></path>		<path class="st0" d="M23.3,8.6v0.2c0.4,0.2,0.8,0.3,1.3,0.5c1,0.4,2.1,0.8,3.1,1.1v-0.2c-1-0.4-2-0.7-3-1.1   C24.2,8.9,23.7,8.8,23.3,8.6z"></path>		<path class="st0" d="M38.3,13.4v0.2c1.2,0.2,2.3,0.4,3.5,0.5c0.3,0,0.6,0,0.9,0.1c0-0.1,0-0.1,0-0.2c-0.3,0-0.6,0-0.9-0.1   C40.7,13.8,39.5,13.6,38.3,13.4z"></path>		<path class="st0" d="M53.6,11c-1.4,0.7-2.8,1.3-4.3,1.8c0,0.1,0,0.1,0.1,0.2c1.5-0.5,3-1.2,4.3-1.8C53.6,11.2,53.6,11.1,53.6,11z"></path>		<path class="st0" d="M20.4,7.8c0-0.1-0.1-0.2-0.1-0.3c-1.2-0.4-2.3-0.9-3.4-1.3C13.4,4.9,10,3.6,6.5,2.4c-0.1,0-0.2,0.1-0.3,0.1   c3.6,1.2,7.1,2.6,10.5,3.9C17.9,6.8,19.2,7.3,20.4,7.8z"></path>		<path class="st0" d="M62.5,6.1c-2.3,1.4-4.6,2.7-7,4v0.2c2.4-1.2,4.7-2.6,7-4L62.5,6.1z"></path>		<path class="st0" d="M30.8,11.5c1.4,0.5,2.9,0.9,4.4,1.3v-0.2c-1.5-0.4-2.9-0.8-4.4-1.3V11.5z"></path>		<path class="st0" d="M30.8,12.5c1.4,0.5,2.9,0.9,4.4,1.3v-0.2c-1.5-0.4-2.9-0.8-4.4-1.3V12.5z"></path>		<path class="st0" d="M62.5,6.9l0-0.1c-2.3,1.3-4.6,2.7-7,3.9v0h0.5c2.3-1.2,4.6-2.5,6.8-3.8H62.5z"></path>		<path class="st0" d="M38.3,14.3v0.2c1,0.2,2,0.3,3,0.4c0.5,0,0.9,0.1,1.4,0.1v-0.2c-0.5,0-0.9,0-1.4-0.1   C40.3,14.6,39.3,14.4,38.3,14.3z"></path>		<path class="st0" d="M19,8.2l0.3-0.1c-0.9-0.3-1.8-0.7-2.6-1C13,5.7,9.2,4.3,5.4,3C5.3,3,5.3,3.1,5.2,3.1   c3.9,1.3,7.7,2.8,11.4,4.2C17.4,7.6,18.2,7.9,19,8.2z"></path>		<path class="st0" d="M53.7,11.6c-1.4,0.7-2.8,1.3-4.3,1.9c0,0.1,0,0.1,0,0.2c1.5-0.5,2.9-1.2,4.3-1.9   C53.7,11.7,53.7,11.6,53.7,11.6z"></path>		<path class="st0" d="M23.3,9.6v0.2c0.3,0.1,0.5,0.2,0.8,0.3c1.2,0.4,2.4,0.9,3.6,1.3v-0.2c-1.2-0.4-2.4-0.9-3.5-1.3   C23.8,9.8,23.5,9.7,23.3,9.6z"></path>		<path class="st0" d="M23.3,10.6v0.2c0,0,0.1,0,0.1,0c1.4,0.5,2.8,1.1,4.3,1.6v-0.2c-1.4-0.5-2.8-1-4.2-1.5   C23.4,10.6,23.3,10.6,23.3,10.6z"></path>		<path class="st0" d="M10.8,5.9C10.8,5.9,10.8,5.9,10.8,5.9C8.7,5.1,6.6,4.3,4.5,3.6C4.4,3.7,4.3,3.7,4.3,3.8c2,0.7,4,1.4,6,2.1   C10.4,5.9,10.6,5.9,10.8,5.9z"></path>		<path class="st0" d="M49.4,14.1c1.5-0.6,2.9-1.2,4.3-1.9c0-0.1,0-0.2,0-0.2c-1.4,0.7-2.9,1.4-4.3,1.9C49.4,14,49.4,14,49.4,14.1   L49.4,14.1z"></path>		<path class="st0" d="M63.7,6.9h-0.4c-0.3,0.2-0.6,0.3-0.9,0.5c-2,1.1-4,2.2-6,3.3h0.5c1.9-1,3.8-2,5.6-3.1   C62.9,7.4,63.3,7.1,63.7,6.9z"></path>		<path class="st0" d="M17.5,8.6l0.3-0.1C17.4,8.4,17,8.2,16.5,8c-0.5-0.2-1.1-0.4-1.6-0.6c0.1,0.1,0.2,0.2,0.4,0.4   c0.4,0.2,0.8,0.3,1.2,0.5C16.8,8.4,17.1,8.5,17.5,8.6z"></path>		<path class="st0" d="M40.6,15.4c-0.7-0.1-1.5-0.2-2.2-0.3v0.2c0.7,0.1,1.5,0.2,2.2,0.3c0.5,0,1,0.1,1.4,0.1c0.2,0,0.5,0,0.7,0   v-0.2C42,15.5,41.3,15.5,40.6,15.4z"></path>		<path class="st0" d="M30.8,13.5c1.4,0.5,2.9,0.9,4.4,1.2v-0.2c-1.5-0.4-2.9-0.8-4.4-1.2V13.5z"></path>		<path class="st0" d="M23.3,11.9c1.4,0.5,2.9,1.1,4.4,1.6v-0.2c-1.5-0.5-2.9-1.1-4.4-1.6V11.9z"></path>		<path class="st0" d="M39.3,16.1c-0.3,0-0.7-0.1-1-0.1v0.2c0.3,0,0.6,0.1,1,0.1c0.5,0.1,1.1,0.1,1.6,0.1c0.6,0,1.2,0,1.8-0.1v-0.2   C41.6,16.3,40.5,16.3,39.3,16.1z"></path>		<path class="st0" d="M21,11L21,11L21,11C21,11,21,11,21,11z"></path>		<path class="st0" d="M16.1,9L16.3,9c0,0,0,0,0,0c-0.1,0-0.2-0.1-0.3-0.1C16,8.9,16.1,9,16.1,9z"></path>		<path class="st0" d="M49.4,14.3v0.2c1.4-0.6,2.7-1.2,3.9-1.7c0.2-0.1,0.3-0.2,0.5-0.2c0-0.1,0-0.2,0-0.2c-0.2,0.1-0.4,0.2-0.6,0.3   C52,13.2,50.7,13.8,49.4,14.3z"></path>		<path class="st0" d="M30.8,14.5c1.4,0.4,2.9,0.8,4.4,1.2v-0.2c-1.5-0.3-2.9-0.7-4.4-1.2V14.5z"></path>		<path class="st0" d="M8.9,6.1C7.1,5.5,5.4,4.9,3.6,4.3C3.5,4.4,3.5,4.4,3.4,4.5C5.1,5,6.8,5.6,8.5,6.3C8.7,6.2,8.8,6.2,8.9,6.1z"></path>		<path class="st0" d="M71.4,3.4c-0.4,0.2-0.7,0.3-1.1,0.5l0,0.2c0.5-0.2,1.1-0.5,1.6-0.7H71.4z"></path>		<path class="st0" d="M64.8,6.9h-0.5c-0.9,0.5-1.8,1-2.7,1.4c-1.5,0.8-3,1.6-4.5,2.3h0.5c1.4-0.7,2.7-1.4,4.1-2.2   C62.7,8,63.7,7.4,64.8,6.9z"></path>		<path class="st0" d="M52.3,13.6c0.5-0.2,1-0.5,1.5-0.7c0-0.1,0-0.2,0-0.2c-0.5,0.2-1.1,0.5-1.6,0.7c-0.9,0.4-1.8,0.8-2.8,1.2v0.2   c0,0,0.1,0,0.1,0c0,0,0,0,0,0C50.5,14.4,51.4,14,52.3,13.6z"></path>		<path class="st0" d="M73.3,3.4c-1,0.4-2,0.8-3,1.2l0,0.2c1.1-0.5,2.3-1,3.6-1.5H73.3z"></path>		<path class="st0" d="M38.3,16.9v0.2c0.5,0,0.9,0.1,1.4,0.1c1,0,2-0.1,3-0.3v-0.2C41.3,16.9,39.8,17,38.3,16.9z"></path>		<path class="st0" d="M58.2,10.7c0.9-0.4,1.7-0.9,2.6-1.3c1.7-0.8,3.4-1.7,5.1-2.5h-0.5c-1.6,0.8-3.2,1.6-4.7,2.4   c-0.9,0.5-1.9,0.9-2.8,1.4L58.2,10.7L58.2,10.7z"></path>		<path class="st0" d="M30.8,15.6c1.4,0.4,2.9,0.8,4.4,1.1v-0.2c-1.5-0.3-2.9-0.6-4.4-1.1V15.6z"></path>		<path class="st0" d="M7.6,6.7C6,6.1,4.4,5.6,2.8,5.1C2.8,5.1,2.7,5.2,2.7,5.2c1.6,0.5,3.1,1,4.7,1.6C7.5,6.8,7.5,6.7,7.6,6.7z"></path>		<path class="st0" d="M23.3,13c1.4,0.5,2.9,1.1,4.4,1.6v-0.2c-1.5-0.5-2.9-1-4.4-1.6V13z"></path>		<path class="st0" d="M18.2,11c0.9,0.4,1.9,0.7,2.8,1.1v-0.2c-0.7-0.3-1.5-0.6-2.2-0.9H18.2z"></path>		<path class="st0" d="M38.3,17.8c1.5,0,2.9-0.2,4.4-0.5v-0.2c-1.5,0.3-2.9,0.5-4.4,0.5V17.8z"></path>		<path class="st0" d="M16,11h-0.6c0,0,0.1,0,0.1,0c1.6,0.7,3.4,1.3,5,2c0.1,0.1,0.3,0.1,0.5,0.2c0-0.1,0-0.2,0-0.2   c-0.1,0-0.3-0.1-0.4-0.1C19.1,12.3,17.5,11.6,16,11z"></path>		<path class="st0" d="M30.8,16.6c1.5,0.4,3,0.7,4.4,0.9v-0.2c-1.5-0.2-2.9-0.5-4.4-0.9V16.6z"></path>		<path class="st0" d="M50.8,14.2c-0.4,0.2-0.8,0.4-1.3,0.5c0,0,0,0,0,0c0,0-0.1,0-0.1,0V15c0,0,0,0,0.1,0c0.4-0.2,0.9-0.3,1.3-0.5   c0,0,0.1,0,0.1-0.1c1-0.4,1.9-0.8,2.9-1.3V13c0,0,0,0,0,0C52.8,13.4,51.8,13.8,50.8,14.2z"></path>		<path class="st0" d="M6.5,7.6c0.1-0.1,0.1-0.1,0.2-0.2C5.4,6.9,4.1,6.5,2.9,6.1C2.6,6,2.4,6,2.1,5.9C2.1,5.9,2.1,6,2,6.1   c0.3,0.1,0.5,0.2,0.8,0.2C4,6.7,5.3,7.1,6.5,7.6z"></path>		<path class="st0" d="M23.3,14.1c1.4,0.5,2.9,1.1,4.4,1.6v-0.2c-1.5-0.5-3-1-4.4-1.6V14.1z"></path>		<path class="st0" d="M74.7,3.8c-0.1,0-0.1,0-0.2,0.1c-1.4,0.4-2.8,0.9-4.1,1.5l0,0.2C71.8,5,73.2,4.4,74.7,4L74.7,3.8z"></path>		<path class="st0" d="M58.2,10.9l0,0.2c0.5-0.2,1-0.5,1.6-0.7c2.4-1.2,5-2.4,7.5-3.5h-0.5c-2.4,1.1-4.7,2.2-7,3.3   C59.2,10.4,58.7,10.6,58.2,10.9z"></path>		<path class="st0" d="M49.5,14.8C49.5,14.8,49.5,14.8,49.5,14.8"></path>		<path class="st0" d="M74.7,4.8c-0.3,0.1-0.6,0.2-1,0.3c-1.1,0.3-2.2,0.7-3.3,1.1l0,0.2c1.4-0.5,2.9-1,4.3-1.3L74.7,4.8z"></path>		<path class="st0" d="M58.5,11.1c-0.1,0-0.2,0.1-0.3,0.1l0,0.2c0.1-0.1,0.3-0.1,0.4-0.2c2.5-1.1,5.2-2.3,7.8-3.4   c0.6-0.2,1.1-0.5,1.7-0.7V7c-0.6,0.2-1.2,0.5-1.7,0.7C63.6,8.8,61,10,58.5,11.1z"></path>		<path class="st0" d="M38.3,18.4c1.3-0.1,2.7-0.4,4.2-0.8c0,0,0.1,0,0.1,0v-0.2c-1.4,0.4-2.9,0.7-4.4,0.8V18.4z"></path>		<path class="st0" d="M49.4,15.2c0.1,0,0.1,0,0.2-0.1c1.4-0.6,2.8-1.2,4.2-1.8v-0.2c-1,0.4-2,0.9-3,1.3c-0.4,0.2-0.9,0.4-1.3,0.6   V15.2z"></path>		<path class="st0" d="M15.2,11.8c-0.6-0.3-1.3-0.5-1.9-0.8h-0.6c0.8,0.3,1.6,0.7,2.4,1c1.5,0.6,3.1,1.3,4.7,1.9   c0.3,0.1,0.7,0.3,1,0.4c0-0.1,0-0.1,0-0.2c-0.3-0.1-0.7-0.3-1-0.4C18.4,13.1,16.8,12.5,15.2,11.8z"></path>		<path class="st0" d="M30.8,17.6c1.4,0.3,2.9,0.6,4.4,0.7v-0.2c-1.5-0.1-2.9-0.4-4.4-0.7V17.6z"></path>		<path class="st0" d="M23.3,15.3c1.4,0.5,2.9,1,4.4,1.5v-0.2c-1.5-0.5-3-1-4.4-1.5V15.3z"></path>		<path class="st0" d="M5.8,8.4c0-0.1,0.1-0.1,0.1-0.2C5,7.9,4.2,7.6,3.3,7.3C2.7,7.1,2.1,6.9,1.5,6.8c0,0.1-0.1,0.1-0.1,0.2   C2,7.1,2.6,7.3,3.2,7.5C4.1,7.8,4.9,8.1,5.8,8.4z"></path>		<path class="st0" d="M49.4,15L49.4,15c0.4-0.2,0.9-0.4,1.3-0.5C50.3,14.7,49.9,14.8,49.4,15C49.5,15,49.5,15,49.4,15z"></path>		<path class="st0" d="M30.8,18.4v0.2c0.9,0.2,1.9,0.3,2.8,0.4c0.5,0,1,0.1,1.5,0.1v-0.2c-0.5,0-1,0-1.5-0.1   C32.7,18.7,31.8,18.6,30.8,18.4z"></path>		<path class="st0" d="M14.8,12.8c-1.3-0.6-2.6-1.1-4-1.7l0,0.2c1.3,0.5,2.6,1.1,3.9,1.6c1.4,0.6,2.9,1.2,4.4,1.8   c0.5,0.2,1.1,0.4,1.6,0.6c0-0.1,0-0.1,0-0.2c-0.5-0.2-1-0.4-1.5-0.6C17.7,14,16.3,13.4,14.8,12.8z"></path>		<path class="st0" d="M5.2,9.2c0-0.1,0.1-0.1,0.1-0.2C4.8,8.8,4.3,8.7,3.7,8.5C2.8,8.2,1.9,7.9,1,7.7C1,7.8,1,7.8,0.9,7.9   c0.9,0.2,1.8,0.5,2.7,0.8C4.2,8.9,4.7,9,5.2,9.2z"></path>		<path class="st0" d="M74.6,5.8c-0.6,0.1-1.2,0.3-1.8,0.4C72,6.4,71.2,6.7,70.3,7l0,0.2c1.4-0.5,2.9-0.9,4.3-1.1L74.6,5.8z"></path>		<path class="st0" d="M38.3,18.8c0.9-0.1,1.8-0.3,2.7-0.5c0.5-0.1,1.1-0.3,1.6-0.4c0,0,0.1,0,0.1,0v-0.2c-1.4,0.4-2.9,0.8-4.4,1   V18.8z"></path>		<path class="st0" d="M49.4,15.2v0.2c1.5-0.6,2.9-1.2,4.4-1.8v-0.2c-1.4,0.6-2.8,1.1-4.2,1.7c0,0,0,0,0,0   C49.5,15.2,49.5,15.2,49.4,15.2z"></path>		<path class="st0" d="M58.2,11.7l0,0.2c2.3-1,4.8-2,7.2-2.9c0.9-0.3,1.8-0.7,2.7-1V7.7c-0.9,0.3-1.8,0.7-2.8,1   C62.9,9.7,60.5,10.7,58.2,11.7z"></path>		<path class="st0" d="M23.3,16.4c1.5,0.5,2.9,1,4.4,1.4v-0.2c-1.5-0.4-2.9-0.9-4.4-1.4V16.4z"></path>		<path class="st0" d="M49.4,15.2c0,0,0.1,0,0.1-0.1c0,0,0,0,0,0C49.6,15.2,49.5,15.2,49.4,15.2L49.4,15.2z"></path>		<path class="st0" d="M23.3,17.6c1.4,0.5,2.9,1,4.4,1.3v-0.2c-1.5-0.4-2.9-0.8-4.4-1.3V17.6z"></path>		<path class="st0" d="M14.4,13.8c-1.2-0.5-2.3-1-3.5-1.5l0,0.2c1.2,0.5,2.3,1,3.4,1.5c0.7,0.3,1.3,0.6,2,0.9l0.3,0c0,0,0,0.1,0,0.1   c0.6,0.3,1.2,0.5,1.8,0.8c0.7,0.3,1.3,0.6,2,0.8c0-0.1,0-0.1,0.1-0.2c-0.7-0.3-1.4-0.5-2-0.8C17.1,14.9,15.7,14.3,14.4,13.8z"></path>		<path class="st0" d="M32,19.4c-0.4,0-0.8-0.1-1.2-0.1v0.2c0.4,0.1,0.8,0.1,1.2,0.1c0.5,0,1,0.1,1.5,0.1c0.5,0,1.1,0,1.6-0.1v-0.2   C34.1,19.5,33.1,19.5,32,19.4z"></path>		<path class="st0" d="M38.3,19v0.2c1.5-0.3,3-0.7,4.4-1.1v-0.2c0,0-0.1,0-0.1,0C41.3,18.3,39.8,18.7,38.3,19z"></path>		<path class="st0" d="M49.4,15.7c1.5-0.5,2.9-1.1,4.4-1.7v-0.2c-1.4,0.6-2.9,1.1-4.4,1.7V15.7z"></path>		<path class="st0" d="M58.2,12.1l0,0.2c1.4-0.6,2.9-1.1,4.3-1.7l0,0h0.1c0.6-0.2,1.1-0.4,1.7-0.6c1.2-0.4,2.5-0.9,3.7-1.3V8.5   c-1.3,0.4-2.6,0.9-3.8,1.3C62.2,10.6,60.2,11.3,58.2,12.1z"></path>		<path class="st0" d="M74.7,6.9c-1.5,0.2-2.9,0.6-4.4,1l0,0.2c1.9-0.5,3.9-1,6-1.2H74.7z"></path>		<path class="st0" d="M4.9,10.1c0-0.1,0-0.1,0.1-0.2C4.7,9.9,4.4,9.8,4.1,9.7c-1.3-0.4-2.4-0.7-3.5-1c0,0.1,0,0.1-0.1,0.2   c1.1,0.3,2.3,0.6,3.5,1C4.3,10,4.6,10.1,4.9,10.1z"></path>		<path class="st0" d="M42.7,17.8L42.7,17.8C42.7,17.8,42.7,17.9,42.7,17.8C42.7,17.9,42.7,17.8,42.7,17.8z"></path>		<path class="st0" d="M49.4,16c1.5-0.5,2.9-1,4.4-1.6v-0.2c-1.4,0.5-2.9,1.1-4.4,1.6V16z"></path>		<path class="st0" d="M64.6,10.7c1.1-0.4,2.2-0.7,3.4-1V9.4c-1.4,0.4-2.8,0.8-4.1,1.3H64.6z"></path>		<path class="st0" d="M62.5,11.1c-1.4,0.5-2.9,1-4.3,1.5l0,0.2c1.4-0.5,2.9-1,4.3-1.5L62.5,11.1z"></path>		<path class="st0" d="M4.6,11.1c0-0.1,0-0.1,0-0.2c-0.1,0-0.1,0-0.2-0.1C3,10.4,1.6,10,0.3,9.7c0,0.1,0,0.1,0,0.2   c1.3,0.3,2.7,0.6,4.2,1.1C4.5,11.1,4.5,11.1,4.6,11.1z"></path>		<path class="st0" d="M14.2,14.8c-0.1,0-0.2-0.1-0.3-0.1c-1-0.5-2-0.9-3.1-1.4l0,0.2c0.9,0.4,1.9,0.8,2.8,1.2L14.2,14.8z"></path>		<path class="st0" d="M23.3,18.8c1.4,0.5,2.9,0.9,4.4,1.1v-0.2c-1.5-0.3-3-0.7-4.4-1.1V18.8z"></path>		<path class="st0" d="M30.8,20.1v0.2c0.3,0,0.7,0,1,0c1.1,0,2.3-0.1,3.4-0.2v-0.2C33.7,20.1,32.3,20.2,30.8,20.1z"></path>		<path class="st0" d="M79.1,8c0.1,0,0.1,0,0.2,0V7.8c-0.1,0-0.1,0-0.2,0c-3,0-5.9,0.4-8.7,1l0,0.2C73.1,8.4,76.1,8,79.1,8z"></path>		<path class="st0" d="M16.2,15.7c0,0.1-0.1,0.1-0.1,0.2c0.5,0.2,1,0.5,1.6,0.7c0.8,0.3,1.5,0.7,2.3,1c0-0.1,0.1-0.1,0.1-0.2   c-0.8-0.3-1.6-0.7-2.3-1C17.2,16.2,16.7,15.9,16.2,15.7z"></path>		<path class="st0" d="M38.3,19.5c1.5-0.3,3-0.8,4.4-1.2v-0.2c-1.4,0.4-2.9,0.9-4.4,1.2V19.5z"></path>		<path class="st0" d="M15.6,16.6c0,0.1-0.1,0.1-0.1,0.2c0.4,0.2,0.9,0.4,1.3,0.6c0.9,0.4,1.8,0.8,2.7,1.2c0-0.1,0.1-0.1,0.1-0.2   c-0.9-0.4-1.8-0.8-2.7-1.2C16.4,17,16,16.8,15.6,16.6z"></path>		<path class="st0" d="M62.5,11.9C62.3,11.9,62.1,12,62,12c-1.3,0.4-2.5,0.8-3.8,1.2l0,0.2c1.3-0.4,2.6-0.8,3.9-1.2   c0.2,0,0.3-0.1,0.5-0.1L62.5,11.9z"></path>		<path class="st0" d="M38.3,19.8c1.4-0.4,2.9-0.8,4.4-1.2v-0.2c-1.5,0.4-2.9,0.9-4.4,1.2V19.8z"></path>		<path class="st0" d="M49.4,16.2v0.2c1.3-0.4,2.7-0.9,4-1.3c0.1,0,0.3-0.1,0.4-0.1v-0.2c-0.2,0.1-0.3,0.1-0.5,0.2   C52.1,15.3,50.8,15.8,49.4,16.2z"></path>		<path class="st0" d="M11.2,14.8l0.5,0c-0.3-0.1-0.5-0.2-0.8-0.4l0,0.2C11,14.8,11.1,14.8,11.2,14.8z"></path>		<path class="st0" d="M23.3,19.9c1.4,0.4,2.9,0.7,4.4,0.9v-0.2c-1.5-0.2-2.9-0.5-4.4-0.9V19.9z"></path>		<path class="st0" d="M4.5,11.9c-1.6-0.5-3-0.9-4.4-1.1c0,0.1,0,0.1,0,0.2c1.4,0.2,2.9,0.6,4.5,1.1C4.5,12.1,4.5,12,4.5,11.9z"></path>		<path class="st0" d="M30.8,20.9c1.5,0,2.9-0.2,4.4-0.5v-0.2c-1.5,0.3-2.9,0.4-4.4,0.5V20.9z"></path>		<path class="st0" d="M67.6,10.7c0.1,0,0.3-0.1,0.4-0.1v-0.2c-0.4,0.1-0.9,0.2-1.3,0.3H67.6z"></path>		<path class="st0" d="M79.3,9.3V9.1c-0.3,0-0.7,0-1,0c-2.7,0-5.4,0.3-7.9,0.8l0,0.2c2.6-0.5,5.2-0.8,7.9-0.8   C78.6,9.3,78.9,9.3,79.3,9.3z"></path>		<path class="st0" d="M38.3,19.9v0.2c1.3-0.3,2.6-0.7,3.8-1c0.2-0.1,0.4-0.1,0.6-0.2v-0.2c-0.2,0.1-0.4,0.1-0.6,0.2   C40.8,19.2,39.6,19.6,38.3,19.9z"></path>		<path class="st0" d="M79.3,10.5v-0.2c-0.6,0-1.2,0-1.9,0c-2.7,0-5,0.2-7.1,0.5l0,0.2c2.1-0.3,4.4-0.5,7.1-0.5   C78,10.5,78.6,10.5,79.3,10.5z"></path>		<path class="st0" d="M4.5,13C3,12.5,1.5,12.2,0,12.1c0,0.1,0,0.1,0,0.2c1.5,0.1,3,0.5,4.6,1C4.6,13.2,4.6,13.1,4.5,13z"></path>		<path class="st0" d="M23.3,20.7V21c1.2,0.3,2.4,0.5,3.7,0.6c0.2,0,0.5,0,0.7,0v-0.2c-0.2,0-0.4,0-0.7,0   C25.7,21.2,24.5,21,23.3,20.7z"></path>		<path class="st0" d="M62.5,12.7c-0.6,0.2-1.1,0.3-1.7,0.5c-0.9,0.3-1.8,0.5-2.7,0.8l0,0.2c0.9-0.3,1.8-0.5,2.7-0.8   c0.5-0.1,1-0.3,1.6-0.5L62.5,12.7z"></path>		<path class="st0" d="M49.4,16.6v0.2c0.9-0.3,1.8-0.6,2.7-0.8c0.6-0.2,1.1-0.4,1.7-0.5v-0.2c-0.6,0.2-1.2,0.4-1.8,0.6   C51.2,16.1,50.3,16.4,49.4,16.6z"></path>		<path class="st0" d="M30.8,21.4c1.2-0.1,2.5-0.3,3.8-0.5c0.2,0,0.4-0.1,0.5-0.1v-0.2c-1.5,0.3-2.9,0.5-4.4,0.6V21.4z"></path>		<path class="st0" d="M14.7,17.5c-0.1,0.1-0.1,0.1-0.2,0.1c0.5,0.3,1,0.5,1.6,0.7c0.8,0.4,1.7,0.8,2.6,1.1c0-0.1,0.1-0.1,0.1-0.2   c-1-0.4-1.9-0.8-2.7-1.2C15.7,17.9,15.2,17.7,14.7,17.5z"></path>		<path class="st0" d="M38.3,20.2v0.2c0.8-0.2,1.6-0.4,2.4-0.6c0.7-0.2,1.3-0.4,2-0.5v-0.2c-0.7,0.2-1.4,0.4-2.1,0.6   C39.9,19.8,39.1,20,38.3,20.2z"></path>		<path class="st0" d="M13.7,18.1c-0.1,0-0.2,0.1-0.2,0.1c0.6,0.3,1.3,0.7,1.9,1c0.9,0.4,1.7,0.8,2.6,1.1c0.1-0.1,0.1-0.1,0.2-0.2   c-0.8-0.3-1.7-0.7-2.6-1.2C14.9,18.7,14.3,18.4,13.7,18.1z"></path>		<path class="st0" d="M74.6,11.6c-1.4,0-2.8,0.1-4.3,0.3l0,0.2c1.5-0.2,2.9-0.3,4.3-0.3L74.6,11.6z"></path>		<path class="st0" d="M30.8,21.9c0.7-0.1,1.5-0.2,2.2-0.3c0.7-0.1,1.4-0.3,2.1-0.4V21c-1.5,0.3-2.9,0.6-4.4,0.7V21.9z"></path>		<path class="st0" d="M49.4,17.2v0.2c0.5-0.1,1-0.3,1.4-0.4c1-0.3,1.9-0.6,2.9-0.9v-0.2c-1,0.3-2,0.6-3,0.9   C50.4,16.9,49.9,17,49.4,17.2z"></path>		<path class="st0" d="M62.5,13.5c-0.9,0.2-1.8,0.5-2.7,0.7c-0.6,0.1-1.1,0.3-1.7,0.5l0,0.2c0.6-0.2,1.1-0.3,1.7-0.5   c0.8-0.2,1.7-0.5,2.6-0.7L62.5,13.5z"></path>		<path class="st0" d="M25.2,21.9c-0.6,0-1.3-0.1-2-0.2v0.2c0.7,0.1,1.3,0.2,1.9,0.2c0.5,0,1,0,1.5,0c0.3,0,0.6,0,0.9,0V22   C26.8,22,26,22,25.2,21.9z"></path>		<path class="st0" d="M4.7,14.1c-1.5-0.4-3.1-0.6-4.7-0.8c0,0.1,0,0.1,0,0.2c1.6,0.1,3.2,0.4,4.7,0.8C4.8,14.3,4.8,14.2,4.7,14.1z"></path>		<path class="st0" d="M49.4,17.8V18c0.1,0,0.2-0.1,0.3-0.1c1.3-0.4,2.7-0.7,4.1-1.1v-0.2c-1.4,0.4-2.8,0.7-4.1,1.1   C49.6,17.7,49.5,17.7,49.4,17.8z"></path>		<path class="st0" d="M5.2,15.3c-1.6-0.4-3.3-0.6-4.9-0.8c0,0.1,0,0.1,0,0.2c1.7,0.1,3.4,0.3,5,0.8C5.2,15.5,5.2,15.4,5.2,15.3z"></path>		<path class="st0" d="M74.6,12.8c-1.4,0-2.9,0.1-4.3,0.2l0,0.2c1.4-0.1,2.9-0.2,4.3-0.2L74.6,12.8z"></path>		<path class="st0" d="M38.3,20.7v0.2c0.3-0.1,0.6-0.1,0.9-0.2c1.2-0.3,2.3-0.6,3.5-0.9v-0.2c-1.2,0.3-2.4,0.6-3.6,0.9   C38.9,20.5,38.6,20.6,38.3,20.7z"></path>		<path class="st0" d="M12.4,18.6c-0.1,0-0.2,0-0.3,0.1c0.1,0,0.1,0.1,0.2,0.1c0.8,0.4,1.5,0.9,2.3,1.3c0.8,0.4,1.7,0.8,2.4,1.1   c0.1,0,0.1-0.1,0.2-0.2c-0.8-0.3-1.7-0.7-2.5-1.2C13.9,19.4,13.1,19,12.4,18.6z"></path>		<path class="st0" d="M62.5,14.4c-1.3,0.3-2.6,0.6-3.7,0.9c-0.2,0-0.4,0.1-0.6,0.1l0,0.2c0.2-0.1,0.4-0.1,0.6-0.2   c1.2-0.3,2.4-0.6,3.7-0.9L62.5,14.4z"></path>		<path class="st0" d="M23.7,22.6c-0.2,0-0.3,0-0.5,0v0.2c0.2,0,0.3,0,0.5,0c0.5,0,1,0,1.5,0c0.8,0,1.6,0,2.4-0.1v-0.2   C26.3,22.6,25,22.6,23.7,22.6z"></path>		<path class="st0" d="M30.8,22.4c1.5-0.2,2.9-0.5,4.4-0.8v-0.2c-1.5,0.3-2.9,0.6-4.4,0.8V22.4z"></path>		<path class="st0" d="M38.3,21.4c1.5-0.3,2.9-0.7,4.4-1v-0.2c-1.5,0.4-2.9,0.7-4.4,1V21.4z"></path>		<path class="st0" d="M30.8,22.9L30.8,22.9c1.5-0.2,2.9-0.5,4.4-0.8v-0.2c-1.4,0.3-2.9,0.6-4.4,0.8V22.9z"></path>		<path class="st0" d="M12,19.5c-0.4-0.2-0.8-0.5-1.2-0.7c-0.2,0-0.3,0-0.5,0c0.5,0.3,1.1,0.6,1.6,0.9c0.7,0.4,1.3,0.8,2,1.2   c0.7,0.4,1.3,0.7,2,1c0.1,0,0.2-0.1,0.2-0.1c-0.7-0.3-1.4-0.6-2.1-1C13.3,20.3,12.6,19.9,12,19.5z"></path>		<path class="st0" d="M49.4,18.6c1.4-0.4,2.9-0.7,4.4-1.1v-0.2c-1.5,0.4-2.9,0.7-4.4,1.1V18.6z"></path>		<path class="st0" d="M74.6,14c-1.4,0-2.8,0.1-4.3,0.2l0,0.2c1.5-0.1,2.9-0.1,4.3-0.2L74.6,14z"></path>		<path class="st0" d="M6.2,16.9C6.1,16.8,6,16.7,6,16.6c-1.4-0.4-2.8-0.7-4.2-0.8c-0.4,0-0.8,0-1.2-0.1c0,0.1,0,0.1,0.1,0.2   C1,16,1.3,16,1.7,16C3.3,16.1,4.8,16.4,6.2,16.9z"></path>		<path class="st0" d="M58.2,16.5C58.2,16.5,58.2,16.5,58.2,16.5c1.4-0.3,2.8-0.6,4.3-0.9l0-0.2c-1.5,0.3-3,0.6-4.3,0.9L58.2,16.5z"></path>		<path class="st0" d="M33.9,22.9c0.4-0.1,0.9-0.2,1.3-0.3v-0.2c-0.8,0.2-1.6,0.3-2.5,0.5H33.9z"></path>		<path class="st0" d="M38.3,21.9c1.5-0.3,2.9-0.6,4.4-1v-0.2c-1.5,0.3-2.9,0.7-4.4,1V21.9z"></path>		<path class="st0" d="M49.4,19.4c1.4-0.3,2.9-0.7,4.4-1v-0.2c-1.5,0.3-2.9,0.7-4.4,1V19.4z"></path>		<path class="st0" d="M11.6,20.5c-1.5-0.9-3-1.9-4.6-2.5c-1.4-0.5-3-0.8-4.7-0.9c-0.4,0-0.8,0-1.2-0.1c0,0-0.1,0-0.1,0   c0,0.1,0.1,0.1,0.1,0.2c0,0,0,0,0,0c0.4,0,0.8,0,1.2,0.1c1.6,0.1,3.2,0.4,4.6,0.9c1.7,0.6,3.2,1.6,4.6,2.5   c0.6,0.4,1.2,0.8,1.8,1.2c0.4,0.2,0.8,0.5,1.2,0.7c0.1,0,0.2-0.1,0.3-0.1c-0.5-0.2-0.9-0.5-1.4-0.7C12.9,21.3,12.2,20.9,11.6,20.5   z"></path>		<path class="st0" d="M74.6,15.3C74.6,15.3,74.6,15.3,74.6,15.3l0-0.2c0,0,0,0,0,0l-0.3,0c-1.4,0-2.7,0.1-4,0.1l0,0.2   c1.3-0.1,2.6-0.1,4-0.1L74.6,15.3z"></path>		<path class="st0" d="M62.5,16.3c-1.5,0.3-3,0.6-4.3,0.9l0,0.2c1.4-0.3,2.8-0.6,4.3-0.9L62.5,16.3z"></path>		<path class="st0" d="M49.4,20.1c1.4-0.3,2.9-0.6,4.4-1V19c-1.5,0.3-2.9,0.6-4.4,1V20.1z"></path>		<path class="st0" d="M74.2,16.5c0.2,0,0.3,0,0.5,0l0-0.2c-0.2,0-0.3,0-0.5,0c-0.2,0-0.4,0-0.6,0c-1.1,0-2.1,0.1-3.2,0.1l0,0.2   c1.1,0,2.1-0.1,3.2-0.1C73.7,16.5,74,16.5,74.2,16.5z"></path>		<path class="st0" d="M38.3,22.6c1.5-0.3,2.9-0.6,4.4-0.9v-0.2c-1.5,0.3-2.9,0.6-4.4,0.9V22.6z"></path>		<path class="st0" d="M62.5,17.3c-1.5,0.3-2.9,0.5-4.3,0.8c0,0.1,0,0.1,0,0.2c1.4-0.3,2.8-0.5,4.3-0.8L62.5,17.3z"></path>		<path class="st0" d="M11.4,21.4c-1.3-0.9-2.6-1.8-4.1-2.4c-1.3-0.5-2.8-0.8-4.4-0.9c-0.4,0-0.9,0-1.3-0.1c0,0.1,0.1,0.1,0.1,0.2   c0.4,0,0.8,0,1.2,0.1c1.6,0.1,3.1,0.4,4.3,0.9c1.5,0.6,2.8,1.5,4,2.4c0.5,0.4,1,0.7,1.6,1.1c0.1,0.1,0.2,0.1,0.4,0.2   c0.1,0,0.2,0,0.3-0.1c-0.2-0.1-0.4-0.2-0.5-0.3C12.4,22.1,11.9,21.8,11.4,21.4z"></path>		<path class="st0" d="M40.4,22.9c0.8-0.2,1.6-0.3,2.3-0.5v-0.2c-1.1,0.2-2.3,0.5-3.4,0.7H40.4z"></path>		<path class="st0" d="M62.7,18.2c-1.5,0.2-3,0.5-4.4,0.8c0,0.1,0,0.1,0,0.2c1.4-0.3,2.9-0.5,4.5-0.8C62.8,18.3,62.7,18.3,62.7,18.2   z"></path>		<path class="st0" d="M49.4,21c1.4-0.3,2.9-0.6,4.4-0.9v-0.2c-1.5,0.3-2.9,0.6-4.4,0.9V21z"></path>		<path class="st0" d="M73.7,17.5c0.3,0,0.6,0,0.9,0l0-0.2c-0.3,0-0.6,0-0.9,0l-0.4,0c-1,0-2,0.1-3,0.1l0,0.1c0,0,0,0.1,0,0.1   c1,0,2-0.1,3-0.1L73.7,17.5z"></path>		<path class="st0" d="M7.5,20c-1.2-0.5-2.6-0.7-4.3-0.8c-0.2,0-0.4,0-0.6,0c-0.1,0-0.1,0-0.2,0c0.1,0.1,0.1,0.1,0.2,0.2   c0,0,0,0,0,0c0.2,0,0.4,0,0.6,0c1.6,0.1,3,0.3,4.2,0.8c1.4,0.5,2.5,1.4,3.6,2.3c0.2,0.2,0.5,0.4,0.7,0.6c0.1,0,0.2,0,0.3,0   c-0.3-0.2-0.6-0.5-0.9-0.7C10.1,21.5,8.9,20.6,7.5,20z"></path>		<path class="st0" d="M63.9,19c-1.9,0.3-3.7,0.6-5.4,0.9c0,0.1,0.1,0.1,0.1,0.2c2.1-0.4,4.3-0.7,6.6-1C64.7,19.1,64.3,19.1,63.9,19   z"></path>		<path class="st0" d="M65.5,19c0.1,0,0.2,0,0.2,0c0.5-0.1,1-0.1,1.6-0.2v-0.2c-0.1,0-0.2,0-0.3,0C66.4,18.8,66,18.9,65.5,19z"></path>		<path class="st0" d="M3.6,20.2c0,0-0.1,0-0.1,0c0.1,0.1,0.2,0.2,0.3,0.2c1.7,0.1,3,0.4,4.1,0.8c1.1,0.4,1.9,1.1,2.8,1.8   c0.1,0,0.1,0,0.2,0c0,0,0.1,0,0.1,0c-0.9-0.8-1.9-1.5-3-2C6.7,20.6,5.3,20.3,3.6,20.2z"></path>		<path class="st0" d="M49.4,21.8c1.5-0.3,2.9-0.6,4.4-0.9v-0.2c-1.5,0.3-2.9,0.6-4.4,0.9V21.8z"></path>		<path class="st0" d="M75.1,18.5c-0.1-0.1-0.1-0.1-0.2-0.2c-0.4,0-0.9,0-1.3,0c-1.1,0-2.1,0-3.2,0.1c0,0.1,0,0.1,0,0.2   c1.1,0,2.1-0.1,3.2-0.1C74.1,18.5,74.6,18.5,75.1,18.5z"></path>		<path class="st0" d="M49.4,22.7c1.5-0.3,2.9-0.6,4.4-0.8v-0.2c-1.5,0.3-2.9,0.6-4.4,0.8V22.7z"></path>		<path class="st0" d="M70.5,19.4c0,0.1,0,0.1,0.1,0.2c1-0.1,2-0.1,2.9-0.1c2,0,4-0.1,6-0.2v-0.2c-2,0.1-4,0.1-6,0.2   C72.5,19.3,71.5,19.3,70.5,19.4z"></path>		<path class="st0" d="M4.7,21.3c0.1,0.1,0.3,0.2,0.4,0.3c1.1,0.1,2,0.4,2.8,0.7c0.5,0.2,1,0.5,1.4,0.8c0.1,0,0.3,0,0.4,0   c-0.5-0.4-1.1-0.8-1.8-1C7.1,21.7,6,21.4,4.7,21.3z"></path>		<path class="st0" d="M59.1,20.9c2.6-0.4,5.4-0.8,8.3-1.1v-0.2c-2.9,0.3-5.8,0.7-8.4,1.1C59,20.8,59,20.9,59.1,20.9z"></path>		<path class="st0" d="M53.1,22.9c0.2,0,0.5-0.1,0.7-0.1v-0.2c-0.6,0.1-1.2,0.2-1.8,0.3H53.1z"></path>		<path class="st0" d="M59.5,21.5c0.1,0.1,0.1,0.1,0.2,0.2c1.9-0.3,3.8-0.6,5.8-0.9c0.6-0.1,1.2-0.1,1.8-0.2v-0.2   c-0.6,0.1-1.2,0.1-1.8,0.2C63.5,20.9,61.4,21.2,59.5,21.5z"></path>		<path class="st0" d="M70.8,20.2c0,0.1,0.1,0.1,0.1,0.2c0.9,0,1.9-0.1,2.8-0.1c1.9-0.1,3.8-0.1,5.8-0.2v-0.2   c-1.9,0.1-3.9,0.1-5.8,0.2C72.7,20.1,71.8,20.1,70.8,20.2z"></path>		<path class="st0" d="M60.4,22.2c0.1,0.1,0.2,0.1,0.3,0.2c1.7-0.3,3.5-0.5,5.2-0.8c0.5-0.1,1-0.1,1.4-0.2v-0.2   c-0.5,0-1,0.1-1.5,0.2C64,21.6,62.2,21.9,60.4,22.2z"></path>		<path class="st0" d="M71.2,21c0,0.1,0.1,0.1,0.2,0.2c0.9,0,1.8-0.1,2.7-0.1c1.8-0.1,3.6-0.1,5.4-0.2v-0.2   c-1.8,0.1-3.6,0.1-5.4,0.2C73.1,20.9,72.2,20.9,71.2,21z"></path>		<path class="st0" d="M71.9,21.7c0.1,0.1,0.2,0.1,0.2,0.2c0.8,0,1.7-0.1,2.6-0.1c1.6-0.1,3.2-0.1,4.8-0.2v-0.2   c-1.6,0-3.2,0.1-4.8,0.2C73.7,21.6,72.8,21.6,71.9,21.7z"></path>		<path class="st0" d="M61.6,22.8c0.1,0.1,0.3,0.1,0.4,0.1c1.4-0.2,2.9-0.4,4.4-0.6c0.3,0,0.6-0.1,0.9-0.1V22   c-0.3,0-0.6,0.1-0.9,0.1C64.8,22.3,63.2,22.6,61.6,22.8z"></path>		<path class="st0" d="M66.6,22.9c-0.8,0.1-1.6,0.2-2.4,0.3C64.9,23.2,65.7,23.1,66.6,22.9z"></path>		<path class="st0" d="M72.8,22.4c0.1,0,0.1,0.1,0.2,0.1c0.1,0,0.1,0.1,0.2,0.1c0.7,0,1.4-0.1,2.2-0.1c1.4,0,2.8-0.1,4.1-0.1v-0.2   c-1.4,0-2.8,0.1-4.1,0.1C74.5,22.3,73.6,22.3,72.8,22.4z"></path>		<path class="st0" d="M74.2,22.9c0.3,0.1,0.5,0.1,0.8,0.2c0.4,0,0.8,0,1.2,0c0.6,0,1.3,0,1.9,0c0.3-0.1,0.7-0.1,1-0.2   c-1,0-2,0-2.9,0.1C75.6,22.9,74.9,22.9,74.2,22.9z"></path>	</g></g></svg>