<svg xmlns="http://www.w3.org/2000/svg" xmlns:xlink="http://www.w3.org/1999/xlink" id="glintt-globallogo" width="119.378" height="15.648" viewBox="0 0 119.378 15.648"><defs><clipPath id="clip-path"><rect id="Ret&#xE2;ngulo_19783" data-name="Ret&#xE2;ngulo 19783" width="119.378" height="15.649" transform="translate(0 0)" fill="none"></rect></clipPath></defs><g id="Grupo_2715" data-name="Grupo 2715" transform="translate(0 0)" clip-path="url(#clip-path)"><path id="Caminho_75852" data-name="Caminho 75852" d="M18.138,2.488H15.27V16.333h2.868Zm2.077,13.845h2.868V5.85H20.215Zm7.813-5.42a2.375,2.375,0,0,1,2.334-2.571,2.076,2.076,0,0,1,2.077,2.215v5.776h2.868V9.826a3.831,3.831,0,0,0-1.286-3.006,4.408,4.408,0,0,0-3.066-1.147,4.012,4.012,0,0,0-2.927,1.147V5.85H25.16V16.333h2.868Zm10.143,2a3.369,3.369,0,0,0,1.769,3.276,5.671,5.671,0,0,0,4.341.181V13.554c-2.211.844-3.236.1-3.236-.663l.02-4.562h3.68V5.816h-3.68l.02-2.351H38.211l-.02,2.351H36.382V8.328h1.809Zm-15.246-8.5a1.762,1.762,0,1,0-2.492,0,1.831,1.831,0,0,0,2.492,0m26.217,8.485.02-4.562h3.075V5.816H49.162l.02-2.351H46.308l-.04,9.447a3.369,3.369,0,0,0,1.769,3.276,5.67,5.67,0,0,0,4.341.181V13.554c-2.211.844-3.236.1-3.236-.663M7.16,11.072l3.738-.02a3.972,3.972,0,0,1-3.817,2.611,3.953,3.953,0,0,1-2.947-1.207A4.228,4.228,0,0,1,2.967,9.43,4.228,4.228,0,0,1,4.134,6.4,3.97,3.97,0,0,1,7.081,5.178a3.775,3.775,0,0,1,3.481,2.077l2.828-.811a6.909,6.909,0,0,0-2.532-2.987A6.722,6.722,0,0,0,7.081,2.349a6.809,6.809,0,0,0-5,2.077A6.81,6.81,0,0,0,0,9.43a6.81,6.81,0,0,0,2.077,5,6.869,6.869,0,0,0,5,2.057,6.47,6.47,0,0,0,4.787-1.919,6.6,6.6,0,0,0,1.919-4.885V8.56H7.12Z" transform="translate(0 -1.222)" fill="#80e0d3"></path><path id="Caminho_75853" data-name="Caminho 75853" d="M484.94,17.829l3.8-.02a4.2,4.2,0,0,1-6.874,1.427,4.3,4.3,0,0,1-1.186-3.075,4.3,4.3,0,0,1,1.186-3.075,4.034,4.034,0,0,1,2.995-1.246,3.836,3.836,0,0,1,3.538,2.11l2.874-.824a7.021,7.021,0,0,0-2.573-3.035,6.83,6.83,0,0,0-3.839-1.126,6.921,6.921,0,0,0-5.085,2.11,6.92,6.92,0,0,0-2.11,5.085,7.171,7.171,0,0,0,7.2,7.175,6.575,6.575,0,0,0,4.864-1.95,6.709,6.709,0,0,0,1.95-4.964V15.276H484.9Zm8.241,5.346h2.914V9.106H493.18Zm38.248-9.849a6.469,6.469,0,0,0-6.894.02,3.062,3.062,0,0,0-1.407,2.613l2.774-.04c.261-.744.965-1.106,2.151-1.106,1.387,0,2.07.442,2.07,1.347v.5h-3.035c-2.573,0-4.2,1.005-4.2,3.276a3.017,3.017,0,0,0,1.467,2.774,5.331,5.331,0,0,0,2.573.623,4.389,4.389,0,0,0,3.2-1.186v1.025h2.753V15.819a2.887,2.887,0,0,0-1.447-2.492M529.178,20.3a3.392,3.392,0,0,1-2.01.663c-.824,0-1.287-.322-1.367-.945-.1-.8.6-1.306,1.829-1.306h2.492a1.923,1.923,0,0,1-.945,1.588m-12.685-7.959a4.354,4.354,0,0,0-2.935,1.106V9.106h-2.914V23.175h2.914v-.884a4.306,4.306,0,0,0,2.935,1.045,4.922,4.922,0,0,0,3.758-1.608,5.469,5.469,0,0,0,1.508-3.879,5.43,5.43,0,0,0-1.527-3.919,4.854,4.854,0,0,0-3.738-1.588m1.708,7.517a2.791,2.791,0,0,1-4,0,2.815,2.815,0,0,1,0-4.02,2.678,2.678,0,0,1,2.01-.864,2.606,2.606,0,0,1,1.99.864,2.734,2.734,0,0,1,.844,2.01,2.8,2.8,0,0,1-.844,2.01m16.684,3.316H537.8V9.106h-2.914ZM503.23,12.342a5.524,5.524,0,0,0-5.487,5.487,5.345,5.345,0,0,0,1.608,3.879,5.459,5.459,0,0,0,7.758.02,5.39,5.39,0,0,0,1.608-3.9,5.209,5.209,0,0,0-1.628-3.859,5.21,5.21,0,0,0-3.859-1.628m1.97,7.5a2.72,2.72,0,0,1-3.939,0,2.775,2.775,0,0,1-.8-2.01,2.7,2.7,0,0,1,.8-1.99,2.72,2.72,0,0,1,3.939,0,2.7,2.7,0,0,1,.8,1.99,2.775,2.775,0,0,1-.8,2.01" transform="translate(-418.422 -7.853)" fill="#80e0d3"></path></g></svg>