<svg xmlns="http://www.w3.org/2000/svg" xmlns:xlink="http://www.w3.org/1999/xlink" id="glintt-next-logo" width="166.728" height="23.655" viewBox="0 0 166.728 23.655"><defs><clipPath id="clip-path"><rect id="Ret&#xE2;ngulo_19837" data-name="Ret&#xE2;ngulo 19837" width="166.728" height="23.655" fill="none"></rect></clipPath></defs><g id="Grupo_2744" data-name="Grupo 2744" clip-path="url(#clip-path)"><path id="Caminho_76012" data-name="Caminho 76012" d="M394.578,51.51H396.5V51.29l-.081,0a7.4,7.4,0,0,0-1.841.222" transform="translate(-346.741 -45.07)" fill="#ad80d0"></path><path id="Caminho_76013" data-name="Caminho 76013" d="M505.542,86.58H505.5l-.007,1.47H510.1l.006-1.47Z" transform="translate(-444.206 -76.084)" fill="#ad80d0"></path><path id="Caminho_76014" data-name="Caminho 76014" d="M505.471,103.026h-.045l-.006,1.42h4.613l.006-1.42Z" transform="translate(-444.145 -90.535)" fill="#ad80d0"></path><path id="Caminho_76015" data-name="Caminho 76015" d="M272.2,64.774v-.661h-4.6v.661h4.6Z" transform="translate(-235.152 -56.34)" fill="#ad80d0"></path><path id="Caminho_76016" data-name="Caminho 76016" d="M267.618,80.853H272.2v-.712h-4.6v.712Z" transform="translate(-235.152 -70.425)" fill="#ad80d0"></path><path id="Caminho_76017" data-name="Caminho 76017" d="M272.2,145.169v-.914h-4.6v.914h4.6Z" transform="translate(-235.152 -126.766)" fill="#ad80d0"></path><path id="Caminho_76018" data-name="Caminho 76018" d="M337.655,145.169v-.914h-4.6v.914h4.6Z" transform="translate(-292.675 -126.766)" fill="#ad80d0"></path><path id="Caminho_76019" data-name="Caminho 76019" d="M505.4,119.471h-.045l-.006,1.369h4.613l.006-1.369Z" transform="translate(-444.083 -104.987)" fill="#ad80d0"></path><path id="Caminho_76020" data-name="Caminho 76020" d="M267.618,96.932H272.2v-.762h-4.6v.762Z" transform="translate(-235.152 -84.51)" fill="#ad80d0"></path><path id="Caminho_76021" data-name="Caminho 76021" d="M434.005,153.629v-1.268h-4.6v1.268h4.6Z" transform="translate(-377.343 -133.89)" fill="#ad80d0"></path><path id="Caminho_76022" data-name="Caminho 76022" d="M505.33,135.916h-.045l-.006,1.318h4.612l.006-1.318Z" transform="translate(-444.021 -119.438)" fill="#ad80d0"></path><path id="Caminho_76023" data-name="Caminho 76023" d="M202.135,96.17v.762h4.6V96.17h-4.6Z" transform="translate(-177.629 -84.51)" fill="#ad80d0"></path><path id="Caminho_76024" data-name="Caminho 76024" d="M268.374,32.057h-.022a2.176,2.176,0,0,0,.583.56h3.349a2.178,2.178,0,0,0,.583-.56Z" transform="translate(-235.818 -28.171)" fill="#ad80d0"></path><path id="Caminho_76025" data-name="Caminho 76025" d="M202.135,48.085V48.7h4.6v-.611h-4.6Z" transform="translate(-177.629 -42.255)" fill="#ad80d0"></path><path id="Caminho_76026" data-name="Caminho 76026" d="M267.594,112.2v.813h4.6V112.2h-4.6Z" transform="translate(-235.152 -98.596)" fill="#ad80d0"></path><path id="Caminho_76027" data-name="Caminho 76027" d="M481.6,70.135v1.521h13.421V70.135H481.6Z" transform="translate(-423.211 -61.632)" fill="#ad80d0"></path><path id="Caminho_76028" data-name="Caminho 76028" d="M206.737,64.774v-.661h-4.6v.661h4.6Z" transform="translate(-177.629 -56.34)" fill="#ad80d0"></path><path id="Caminho_76029" data-name="Caminho 76029" d="M206.737,129.089v-.864h-4.6v.864h4.6Z" transform="translate(-177.629 -112.68)" fill="#ad80d0"></path><path id="Caminho_76030" data-name="Caminho 76030" d="M206.737,145.169v-.914h-4.6v.914h4.6Z" transform="translate(-177.629 -126.766)" fill="#ad80d0"></path><path id="Caminho_76031" data-name="Caminho 76031" d="M202.135,112.2v.813h4.6V112.2h-4.6Z" transform="translate(-177.629 -98.596)" fill="#ad80d0"></path><path id="Caminho_76032" data-name="Caminho 76032" d="M272.2,161.248v-.965h-4.6v.965h4.6Z" transform="translate(-235.152 -140.851)" fill="#ad80d0"></path><path id="Caminho_76033" data-name="Caminho 76033" d="M434.005,170.024v-1.217h-4.6v1.217h4.6Z" transform="translate(-377.343 -148.341)" fill="#ad80d0"></path><path id="Caminho_76034" data-name="Caminho 76034" d="M337.655,161.248v-.965h-4.6v.965h4.6Z" transform="translate(-292.675 -140.851)" fill="#ad80d0"></path><path id="Caminho_76035" data-name="Caminho 76035" d="M612.941,23.582h4.606l.013-1.519h-4.612Z" transform="translate(-538.631 -19.388)" fill="#ad80d0"></path><path id="Caminho_76036" data-name="Caminho 76036" d="M481.6,53.69v1.571h13.421V53.69H481.6Z" transform="translate(-423.211 -47.181)" fill="#ad80d0"></path><path id="Caminho_76037" data-name="Caminho 76037" d="M617.422,152.361h-4.764a7.336,7.336,0,0,0,.193,1.268h9.589v-.872c-2.883,1.1-4.51.519-5.018-.4" transform="translate(-538.382 -133.889)" fill="#ad80d0"></path><path id="Caminho_76038" data-name="Caminho 76038" d="M124.585,144.255h-5.477a6.219,6.219,0,0,1-1.4.914h6.407a9.941,9.941,0,0,0,.474-.914" transform="translate(-103.434 -126.766)" fill="#ad80d0"></path><path id="Caminho_76039" data-name="Caminho 76039" d="M342.583,70.135v1.213h-9.53v.712h9.381v-.4h6.313a5.819,5.819,0,0,0-1.02-1.521Z" transform="translate(-292.675 -61.632)" fill="#ad80d0"></path><path id="Caminho_76040" data-name="Caminho 76040" d="M105.153,113.011c.035-.266.059-.538.078-.813H94.611l.013.813h10.529Z" transform="translate(-83.141 -98.596)" fill="#ad80d0"></path><path id="Caminho_76041" data-name="Caminho 76041" d="M528.707,185.252h-7.926a5.557,5.557,0,0,0,.959.634,7,7,0,0,0,1.342.533h4.688c.307-.069.619-.149.937-.243Z" transform="translate(-457.644 -162.793)" fill="#ad80d0"></path><path id="Caminho_76042" data-name="Caminho 76042" d="M4.765,96.932c0-.058,0-.115,0-.173,0-.2.008-.4.022-.589H.013Q0,96.462,0,96.759c0,.058,0,.115,0,.173Z" transform="translate(0 -84.511)" fill="#ad80d0"></path><path id="Caminho_76043" data-name="Caminho 76043" d="M25.692,32.617H42.1q-.263-.29-.547-.56h-15.3c-.116.108-.232.217-.347.332-.075.075-.146.152-.219.229Z" transform="translate(-22.572 -28.171)" fill="#ad80d0"></path><path id="Caminho_76044" data-name="Caminho 76044" d="M120.182,48.7q-.179-.313-.375-.611h-6.9a6.054,6.054,0,0,1,1.216.611h6.062Z" transform="translate(-99.216 -42.255)" fill="#ad80d0"></path><path id="Caminho_76045" data-name="Caminho 76045" d="M137.441,129.09h4.885q.137-.423.24-.864h-4.623a6.531,6.531,0,0,1-.524.864Z" transform="translate(-120.76 -112.68)" fill="#ad80d0"></path><path id="Caminho_76046" data-name="Caminho 76046" d="M268.544.459h4.449a2.906,2.906,0,0,0-.237-.273c-.066-.066-.135-.128-.206-.187h-3.587c-.071.058-.14.12-.206.187a2.918,2.918,0,0,0-.237.273Z" transform="translate(-235.965)" fill="#ad80d0"></path><path id="Caminho_76047" data-name="Caminho 76047" d="M263.619,16.538h5.64a2.832,2.832,0,0,0,0-.51h-5.643a2.818,2.818,0,0,0,0,.51" transform="translate(-231.649 -14.085)" fill="#ad80d0"></path><path id="Caminho_76048" data-name="Caminho 76048" d="M267.594,128.226v.864h4.6v-.864h-4.6Z" transform="translate(-235.152 -112.681)" fill="#ad80d0"></path><path id="Caminho_76049" data-name="Caminho 76049" d="M333.083,113.011h4.577a5,5,0,0,1,.1-.813h-4.706v.813Z" transform="translate(-292.675 -98.596)" fill="#ad80d0"></path><path id="Caminho_76050" data-name="Caminho 76050" d="M337.655,129.089v-.864h-4.6v.864h4.6Z" transform="translate(-292.675 -112.68)" fill="#ad80d0"></path><path id="Caminho_76051" data-name="Caminho 76051" d="M518.322,168.806h-9.359a4.935,4.935,0,0,0,.682,1.217h8.677Z" transform="translate(-447.258 -148.341)" fill="#ad80d0"></path><path id="Caminho_76052" data-name="Caminho 76052" d="M434.005,137.234v-1.318h-4.6v1.318h4.6Z" transform="translate(-377.343 -119.438)" fill="#ad80d0"></path><path id="Caminho_76053" data-name="Caminho 76053" d="M411.658,86.789v.005a3.159,3.159,0,0,1,1.569,1.257h5.131a6.564,6.564,0,0,0-.339-1.47h-6.361Z" transform="translate(-361.75 -76.084)" fill="#ad80d0"></path><path id="Caminho_76054" data-name="Caminho 76054" d="M510.238,152.361h-4.764a7.336,7.336,0,0,0,.193,1.268h9.589v-.872c-2.883,1.1-4.51.519-5.018-.4" transform="translate(-444.192 -133.889)" fill="#ad80d0"></path><path id="Caminho_76055" data-name="Caminho 76055" d="M333.083,55.615h9.351v-.354H347.3l-.023-.021a6.9,6.9,0,0,0-2.766-1.55h-1.925v1.264H337.97c-.106.092-.212.186-.314.286v-.286h-4.6v.661Z" transform="translate(-292.675 -47.181)" fill="#ad80d0"></path><path id="Caminho_76056" data-name="Caminho 76056" d="M434.005,120.84v-1.369h-4.6v1.369h4.6Z" transform="translate(-377.343 -104.987)" fill="#ad80d0"></path><path id="Caminho_76057" data-name="Caminho 76057" d="M426.889,103.026a3.945,3.945,0,0,1,.3,1.42H431.8v-1.026c0-.133,0-.264-.01-.393h-4.9Z" transform="translate(-375.135 -90.536)" fill="#ad80d0"></path><path id="Caminho_76058" data-name="Caminho 76058" d="M333.053,96.17v.762h5.13a3.807,3.807,0,0,1,.536-.762h-5.666Z" transform="translate(-292.675 -84.511)" fill="#ad80d0"></path><path id="Caminho_76059" data-name="Caminho 76059" d="M12.959,48.7h6.217a6.147,6.147,0,0,1,1.215-.611H13.359c-.141.2-.278.4-.4.611Z" transform="translate(-11.384 -42.255)" fill="#ad80d0"></path><path id="Caminho_76060" data-name="Caminho 76060" d="M45.869,16.538H57.4a10.65,10.65,0,0,0-.94-.51H46.8a10.671,10.671,0,0,0-.94.51Z" transform="translate(-40.301 -14.085)" fill="#ad80d0"></path><path id="Caminho_76061" data-name="Caminho 76061" d="M5.16,64.774h5.187a6.741,6.741,0,0,1,.484-.661H5.417c-.093.218-.181.438-.26.661Z" transform="translate(-4.532 -56.34)" fill="#ad80d0"></path><path id="Caminho_76062" data-name="Caminho 76062" d="M272.2,192.339h-4.6v.008h4.6Z" transform="translate(-235.152 -169.021)" fill="#ad80d0"></path><path id="Caminho_76063" data-name="Caminho 76063" d="M337.655,192.339h-4.6v.008h4.6Z" transform="translate(-292.675 -169.021)" fill="#ad80d0"></path><path id="Caminho_76064" data-name="Caminho 76064" d="M505.7,23.582h4.613l.013-1.519h-4.613Z" transform="translate(-444.394 -19.388)" fill="#ad80d0"></path><path id="Caminho_76065" data-name="Caminho 76065" d="M635.891,185.252h-7.926a5.557,5.557,0,0,0,.959.634,7,7,0,0,0,1.342.533h4.688c.307-.069.619-.149.937-.243Z" transform="translate(-551.833 -162.793)" fill="#ad80d0"></path><path id="Caminho_76066" data-name="Caminho 76066" d="M612.811,53.69l-.007,1.571h9.538V53.69h-9.532Z" transform="translate(-538.511 -47.181)" fill="#ad80d0"></path><path id="Caminho_76067" data-name="Caminho 76067" d="M206.737,161.248v-.965h-4.6v.965h4.6Z" transform="translate(-177.629 -140.851)" fill="#ad80d0"></path><path id="Caminho_76068" data-name="Caminho 76068" d="M1.109,80.853H5.945a6.75,6.75,0,0,1,.214-.712H1.24c-.051.234-.1.471-.132.712Z" transform="translate(-0.974 -70.425)" fill="#ad80d0"></path><path id="Caminho_76069" data-name="Caminho 76069" d="M612.935,37.245h-.055l-.007,1.622h4.6l.014-1.622Z" transform="translate(-538.57 -32.729)" fill="#ad80d0"></path><path id="Caminho_76070" data-name="Caminho 76070" d="M612.66,103.026h-.055l-.006,1.42h4.613l.006-1.42Z" transform="translate(-538.33 -90.535)" fill="#ad80d0"></path><path id="Caminho_76071" data-name="Caminho 76071" d="M612.592,119.471h-.055l-.006,1.369h4.613l.006-1.369Z" transform="translate(-538.27 -104.987)" fill="#ad80d0"></path><path id="Caminho_76072" data-name="Caminho 76072" d="M612.524,135.916h-.055l-.006,1.318h4.612l.006-1.318Z" transform="translate(-538.211 -119.438)" fill="#ad80d0"></path><path id="Caminho_76073" data-name="Caminho 76073" d="M612.729,86.58h-.055l-.006,1.47h4.613l.007-1.47Z" transform="translate(-538.39 -76.084)" fill="#ad80d0"></path><path id="Caminho_76074" data-name="Caminho 76074" d="M612.8,70.135h-.055l-.006,1.521h9.547V70.135Z" transform="translate(-538.45 -61.632)" fill="#ad80d0"></path><path id="Caminho_76075" data-name="Caminho 76075" d="M434.005,185.252h-4.6v.868h4.6Z" transform="translate(-377.343 -162.792)" fill="#ad80d0"></path><path id="Caminho_76076" data-name="Caminho 76076" d="M272.2,177.327v-1.015h-4.6v1.015h4.6Z" transform="translate(-235.152 -154.936)" fill="#ad80d0"></path><path id="Caminho_76077" data-name="Caminho 76077" d="M206.737,192.339h-4.6v.008h4.6Z" transform="translate(-177.629 -169.021)" fill="#ad80d0"></path><path id="Caminho_76078" data-name="Caminho 76078" d="M337.655,177.327v-1.015h-4.6v1.015h4.6Z" transform="translate(-292.675 -154.936)" fill="#ad80d0"></path><path id="Caminho_76079" data-name="Caminho 76079" d="M625.506,168.806h-9.359a4.935,4.935,0,0,0,.682,1.217h8.677Z" transform="translate(-541.448 -148.341)" fill="#ad80d0"></path><path id="Caminho_76080" data-name="Caminho 76080" d="M505.58,37.245l-.014,1.622h4.613l.014-1.622H505.58Z" transform="translate(-444.273 -32.729)" fill="#ad80d0"></path><path id="Caminho_76081" data-name="Caminho 76081" d="M206.737,177.327v-1.015h-4.6v1.015h4.6Z" transform="translate(-177.629 -154.936)" fill="#ad80d0"></path><path id="Caminho_76082" data-name="Caminho 76082" d="M21.994,161.248H37.683a10.722,10.722,0,0,0,.835-.965H21.095q.362.434.775.848c.041.04.083.077.124.117" transform="translate(-18.538 -140.851)" fill="#ad80d0"></path><path id="Caminho_76083" data-name="Caminho 76083" d="M202.153,16.538h4.584v-.51h-4.6v.51Z" transform="translate(-177.629 -14.085)" fill="#ad80d0"></path><path id="Caminho_76084" data-name="Caminho 76084" d="M17.458,145.169h.022a6.209,6.209,0,0,1-1.377-.914H10.311q.247.467.543.914Z" transform="translate(-9.061 -126.766)" fill="#ad80d0"></path><path id="Caminho_76085" data-name="Caminho 76085" d="M49.856,177.326a10.117,10.117,0,0,0,1.555-1.015H37.953a11.109,11.109,0,0,0,1.626,1.015Z" transform="translate(-33.352 -154.936)" fill="#ad80d0"></path><path id="Caminho_76086" data-name="Caminho 76086" d="M78.019,192.339H72.945a11.969,11.969,0,0,0,2.52.262,12.129,12.129,0,0,0,2.555-.262" transform="translate(-64.101 -169.021)" fill="#ad80d0"></path><path id="Caminho_76087" data-name="Caminho 76087" d="M9.369,129.09h0a6.55,6.55,0,0,1-.535-.864H3.779c.086.293.187.58.3.864Z" transform="translate(-3.321 -112.68)" fill="#ad80d0"></path><path id="Caminho_76088" data-name="Caminho 76088" d="M136.514,64.774l2.307-.661h-4.044a5.9,5.9,0,0,1,.438.661h1.3Z" transform="translate(-118.437 -56.34)" fill="#ad80d0"></path><path id="Caminho_76089" data-name="Caminho 76089" d="M.736,113.011H5.609a6.959,6.959,0,0,1-.191-.813H.619c.03.275.068.546.117.813" transform="translate(-0.544 -98.596)" fill="#ad80d0"></path><path id="Caminho_76090" data-name="Caminho 76090" d="M202.153,32.617h4.584v-.56h-4.6v.56Z" transform="translate(-177.629 -28.17)" fill="#ad80d0"></path><path id="Caminho_76091" data-name="Caminho 76091" d="M105.044,96.932v-.762H94.359l.012.762h10.672Z" transform="translate(-82.92 -84.51)" fill="#ad80d0"></path><path id="Caminho_76092" data-name="Caminho 76092" d="M206.737,80.853v-.712h-4.6v.712h4.6Z" transform="translate(-177.629 -70.425)" fill="#ad80d0"></path><path id="Caminho_76093" data-name="Caminho 76093" d="M1296.146,23.9h4.539l0-.27h-4.539Z" transform="translate(-1139.007 -20.761)" fill="#ad80d0"></path><rect id="Ret&#xE2;ngulo_19827" data-name="Ret&#xE2;ngulo 19827" width="4.666" height="1.142" transform="translate(94.956 22.259)" fill="#ad80d0"></rect><path id="Caminho_76094" data-name="Caminho 76094" d="M1275.2,50.373l0,.471h-2.857v.443h12.253v-.443h-4.857l0-.471Z" transform="translate(-1118.085 -44.266)" fill="#ad80d0"></path><path id="Caminho_76095" data-name="Caminho 76095" d="M1272.338,83.264v.451h2.857v.362h4.539l0-.362h4.856v-.451Z" transform="translate(-1118.085 -73.169)" fill="#ad80d0"></path><path id="Caminho_76096" data-name="Caminho 76096" d="M787.9,40.616v-.857l.361.857h4.652l-.538-1.268h-9.141v1.268Z" transform="translate(-688.276 -34.578)" fill="#ad80d0"></path><rect id="Ret&#xE2;ngulo_19828" data-name="Ret&#xE2;ngulo 19828" width="4.666" height="1.318" transform="translate(94.956 6.714)" fill="#ad80d0"></rect><rect id="Ret&#xE2;ngulo_19829" data-name="Ret&#xE2;ngulo 19829" width="4.666" height="1.622" transform="translate(94.956 18.373)" fill="#ad80d0"></rect><path id="Caminho_76097" data-name="Caminho 76097" d="M792.064,24.537l-.517-1.217h-8.317v1.217Z" transform="translate(-688.275 -20.493)" fill="#ad80d0"></path><rect id="Ret&#xE2;ngulo_19830" data-name="Ret&#xE2;ngulo 19830" width="4.666" height="1.571" transform="translate(94.956 16.43)" fill="#ad80d0"></rect><rect id="Ret&#xE2;ngulo_19831" data-name="Ret&#xE2;ngulo 19831" width="4.666" height="1.42" transform="translate(94.956 10.6)" fill="#ad80d0"></rect><path id="Caminho_76098" data-name="Caminho 76098" d="M791.219,10.617l-.369-.869h-7.618v.869Z" transform="translate(-688.276 -8.566)" fill="#ad80d0"></path><rect id="Ret&#xE2;ngulo_19832" data-name="Ret&#xE2;ngulo 19832" width="4.666" height="1.521" transform="translate(94.956 14.486)" fill="#ad80d0"></rect><rect id="Ret&#xE2;ngulo_19833" data-name="Ret&#xE2;ngulo 19833" width="4.666" height="1.47" transform="translate(94.956 12.543)" fill="#ad80d0"></rect><rect id="Ret&#xE2;ngulo_19834" data-name="Ret&#xE2;ngulo 19834" width="4.666" height="1.369" transform="translate(94.956 8.657)" fill="#ad80d0"></rect><path id="Caminho_76099" data-name="Caminho 76099" d="M1156.18,116.154v.4h-3.836l.306.5-.618,1.017h4v-1.213h3.847l.433-.712Z" transform="translate(-1012.364 -102.072)" fill="#ad80d0"></path><path id="Caminho_76100" data-name="Caminho 76100" d="M1147.4,132.6v.354h-4.405l-.955,1.571h5.1l.115-.188v-1.075h4.79l-.4-.661Z" transform="translate(-1003.584 -116.523)" fill="#ad80d0"></path><path id="Caminho_76101" data-name="Caminho 76101" d="M1150.133,99.709l-.221.362-.025-.04v.133h-5.017l.893,1.47h3.975v-1.163h5.028l.463-.762Z" transform="translate(-1006.071 -87.621)" fill="#ad80d0"></path><path id="Caminho_76102" data-name="Caminho 76102" d="M1189.177,149.045l.373.611h5.094l-.371-.611Z" transform="translate(-1045.006 -130.975)" fill="#ad80d0"></path><path id="Caminho_76103" data-name="Caminho 76103" d="M907.623,24.537h4.661V23.32h-4.663Z" transform="translate(-797.585 -20.493)" fill="#ad80d0"></path><path id="Caminho_76104" data-name="Caminho 76104" d="M912.263,9.748H907.6l0,.869h4.665Z" transform="translate(-797.564 -8.566)" fill="#ad80d0"></path><path id="Caminho_76105" data-name="Caminho 76105" d="M1199.221,165.49l.342.56h5.088l-.34-.56Z" transform="translate(-1053.833 -145.426)" fill="#ad80d0"></path><path id="Caminho_76106" data-name="Caminho 76106" d="M1194.723,83.264l-.5.813h5.093l.494-.813Z" transform="translate(-1049.443 -73.169)" fill="#ad80d0"></path><path id="Caminho_76107" data-name="Caminho 76107" d="M1204.544,66.818l-.527.864h5.086l.525-.864Z" transform="translate(-1058.046 -58.718)" fill="#ad80d0"></path><rect id="Ret&#xE2;ngulo_19835" data-name="Ret&#xE2;ngulo 19835" width="4.666" height="1.672" transform="translate(94.956 20.316)" fill="#ad80d0"></rect><path id="Caminho_76108" data-name="Caminho 76108" d="M1298.36,165.49a5.39,5.39,0,0,0,.214.56h9.106v-.56Z" transform="translate(-1140.952 -145.427)" fill="#ad80d0"></path><path id="Caminho_76109" data-name="Caminho 76109" d="M1296.017,33.928l-.008.965h4.539l.008-.965Z" transform="translate(-1138.886 -29.815)" fill="#ad80d0"></path><path id="Caminho_76110" data-name="Caminho 76110" d="M1308.369,181.935a4.98,4.98,0,0,0,.612.51h7.494v-.51Z" transform="translate(-1149.748 -159.878)" fill="#ad80d0"></path><path id="Caminho_76111" data-name="Caminho 76111" d="M1295.681,132.6l0,.661h4.539l0-.661Z" transform="translate(-1138.596 -116.523)" fill="#ad80d0"></path><path id="Caminho_76112" data-name="Caminho 76112" d="M1295.7,149.045c.006.209.017.414.037.611h4.863a1.42,1.42,0,0,1-.328-.611Z" transform="translate(-1138.612 -130.975)" fill="#ad80d0"></path><rect id="Ret&#xE2;ngulo_19836" data-name="Ret&#xE2;ngulo 19836" width="12.252" height="0.864" transform="translate(154.253 8.101)" fill="#ad80d0"></rect><path id="Caminho_76113" data-name="Caminho 76113" d="M1295.823,99.709l0,.762h4.539l0-.762Z" transform="translate(-1138.719 -87.621)" fill="#ad80d0"></path><path id="Caminho_76114" data-name="Caminho 76114" d="M1295.752,116.154l0,.712h4.539l0-.712Z" transform="translate(-1138.658 -102.072)" fill="#ad80d0"></path><path id="Caminho_76115" data-name="Caminho 76115" d="M1132.048,153.168h5.09l.991-1.622h-5.1Z" transform="translate(-994.804 -133.174)" fill="#ad80d0"></path><path id="Caminho_76116" data-name="Caminho 76116" d="M988.463,135.518H971.346a8.308,8.308,0,0,0,.4,1.571h4.647a3.91,3.91,0,0,1-.616-1.3h12.633c.021-.091.037-.183.054-.274" transform="translate(-853.584 -119.088)" fill="#ad80d0"></path><path id="Caminho_76117" data-name="Caminho 76117" d="M983.055,72.774H997.3a8.708,8.708,0,0,0-1.2-1.369H984.251c-.062.058-.125.115-.186.175a9.273,9.273,0,0,0-1.01,1.194" transform="translate(-863.874 -62.748)" fill="#ad80d0"></path><path id="Caminho_76118" data-name="Caminho 76118" d="M983.846,152.765a4.334,4.334,0,0,1-3.2-1.219h-4.816a8.283,8.283,0,0,0,.911,1.622h14.663a6.77,6.77,0,0,0,.406-.688l-3.268-.934h-.977a5.7,5.7,0,0,1-3.723,1.219" transform="translate(-857.528 -133.173)" fill="#ad80d0"></path><path id="Caminho_76119" data-name="Caminho 76119" d="M1009.368,56.694a8.495,8.495,0,0,0-2.483-1.318h-5.406a8.348,8.348,0,0,0-2.485,1.318Z" transform="translate(-877.88 -48.662)" fill="#ad80d0"></path><path id="Caminho_76120" data-name="Caminho 76120" d="M912.385,88.852v-1.42h-4.649l0,1.42Z" transform="translate(-797.686 -76.833)" fill="#ad80d0"></path><path id="Caminho_76121" data-name="Caminho 76121" d="M907.71,72.774h4.65V71.4h-4.653Z" transform="translate(-797.661 -62.748)" fill="#ad80d0"></path><path id="Caminho_76122" data-name="Caminho 76122" d="M1130.479,71.4h-5.085l.832,1.369h5.09Z" transform="translate(-988.955 -62.748)" fill="#ad80d0"></path><path id="Caminho_76123" data-name="Caminho 76123" d="M975.13,87.433a8.028,8.028,0,0,0-.667,1.42h4.668a4.149,4.149,0,0,1,1.978-1.42Z" transform="translate(-856.323 -76.833)" fill="#ad80d0"></path><path id="Caminho_76124" data-name="Caminho 76124" d="M983.5,104.13h-8.158a3.9,3.9,0,0,1,.282-.669h-4.5a8.635,8.635,0,0,0-.275,1.47h17.238c-.036-.265-.083-.532-.147-.8-.047-.228-.1-.45-.165-.669h-4.558a3.992,3.992,0,0,1,.28.669" transform="translate(-853.146 -90.918)" fill="#ad80d0"></path><path id="Caminho_76125" data-name="Caminho 76125" d="M1128.161,167.574h-5.089l-1.016,1.672h5.083Z" transform="translate(-986.023 -147.258)" fill="#ad80d0"></path><path id="Caminho_76126" data-name="Caminho 76126" d="M1213.806,54.7h5.08l.269-.443h-5.079Z" transform="translate(-1066.649 -47.68)" fill="#ad80d0"></path><path id="Caminho_76127" data-name="Caminho 76127" d="M1209.266,181.935l.311.51h5.082l-.31-.51Z" transform="translate(-1062.659 -159.878)" fill="#ad80d0"></path><path id="Caminho_76128" data-name="Caminho 76128" d="M999.53,167.574H985.339a9.644,9.644,0,0,0,.7.8,9.276,9.276,0,0,0,1,.872h10.685a7.36,7.36,0,0,0,1.8-1.672" transform="translate(-865.881 -147.258)" fill="#ad80d0"></path><path id="Caminho_76129" data-name="Caminho 76129" d="M912.411,104.932v-1.47h-4.646l0,1.47Z" transform="translate(-797.711 -90.918)" fill="#ad80d0"></path><path id="Caminho_76130" data-name="Caminho 76130" d="M970.442,119.992a9.632,9.632,0,0,0,.055,1.017h17.24a7.515,7.515,0,0,0,.043-1.521H970.455c-.008.166-.013.333-.013.5" transform="translate(-852.79 -105.003)" fill="#ad80d0"></path><path id="Caminho_76131" data-name="Caminho 76131" d="M852.616,104.931l-.624-1.47h-4.671l.62,1.47Z" transform="translate(-744.596 -90.918)" fill="#ad80d0"></path><path id="Caminho_76132" data-name="Caminho 76132" d="M877.11,153.168v-1.622h-4.635V152l-.194-.458h-4.687l.684,1.622Z" transform="translate(-762.41 -133.174)" fill="#ad80d0"></path><path id="Caminho_76133" data-name="Caminho 76133" d="M866.185,137.089l-.667-1.571h-4.682l.662,1.571Z" transform="translate(-756.472 -119.088)" fill="#ad80d0"></path><path id="Caminho_76134" data-name="Caminho 76134" d="M912.436,121.011V119.49h-4.642l0,1.521Z" transform="translate(-797.737 -105.004)" fill="#ad80d0"></path><path id="Caminho_76135" data-name="Caminho 76135" d="M845.831,88.852l-.6-1.42h-4.665l.6,1.42Z" transform="translate(-738.657 -76.833)" fill="#ad80d0"></path><path id="Caminho_76136" data-name="Caminho 76136" d="M1120.752,183.6h-5.083l-.694,1.142h5.078Z" transform="translate(-979.801 -161.343)" fill="#ad80d0"></path><path id="Caminho_76137" data-name="Caminho 76137" d="M1012.058,183.825c.137-.071.269-.146.4-.222h-9.865a8.418,8.418,0,0,0,4.768,1.4,10,10,0,0,0,4.7-1.174" transform="translate(-881.042 -161.344)" fill="#ad80d0"></path><path id="Caminho_76138" data-name="Caminho 76138" d="M888.986,184.744V183.6h-7.877l.481,1.142Z" transform="translate(-774.287 -161.343)" fill="#ad80d0"></path><path id="Caminho_76139" data-name="Caminho 76139" d="M883.049,169.247v-1.672h-8.7l.7,1.672Z" transform="translate(-768.349 -147.259)" fill="#ad80d0"></path><path id="Caminho_76140" data-name="Caminho 76140" d="M859.4,121.011l-.645-1.521h-4.676l.641,1.521Z" transform="translate(-750.534 -105.004)" fill="#ad80d0"></path><path id="Caminho_76141" data-name="Caminho 76141" d="M1053.991,87.433a4.09,4.09,0,0,1,1.957,1.42h4.721a8.284,8.284,0,0,0-.661-1.42Z" transform="translate(-926.21 -76.833)" fill="#ad80d0"></path><path id="Caminho_76142" data-name="Caminho 76142" d="M1140.223,87.433h-5.092l.863,1.42h5.1Z" transform="translate(-997.513 -76.833)" fill="#ad80d0"></path><path id="Caminho_76143" data-name="Caminho 76143" d="M912.462,137.089v-1.571h-4.639l0,1.571Z" transform="translate(-797.762 -119.088)" fill="#ad80d0"></path><path id="Caminho_76144" data-name="Caminho 76144" d="M839.046,72.774l-.581-1.369h-4.66l.577,1.369Z" transform="translate(-732.719 -62.748)" fill="#ad80d0"></path><path id="Caminho_76145" data-name="Caminho 76145" d="M1116.456,56.695h5.083l-.805-1.318h-5.079Z" transform="translate(-980.398 -48.663)" fill="#ad80d0"></path><path id="Caminho_76146" data-name="Caminho 76146" d="M827.6,56.695h4.658l-.559-1.318h-4.654Z" transform="translate(-726.78 -48.663)" fill="#ad80d0"></path><path id="Caminho_76147" data-name="Caminho 76147" d="M912.335,56.695V55.376h-4.656l0,1.318Z" transform="translate(-797.636 -48.663)" fill="#ad80d0"></path><path id="Caminho_76148" data-name="Caminho 76148" d="M907.652,40.616h4.657V39.348h-4.66Z" transform="translate(-797.61 -34.578)" fill="#ad80d0"></path></g></svg>