<svg width="730" height="169" viewBox="0 0 730 169" fill="none" xmlns="http://www.w3.org/2000/svg">
<path d="M687.074 130.659C659.444 130.659 640.085 109.717 640.085 82.6154C640.085 55.5128 659.972 34.5701 686.898 34.5701C706.783 34.5701 724.382 46.5368 729.311 66.9514L715.583 70.1194C713.119 56.3928 701.503 47.2408 687.25 47.2408C667.716 47.2408 654.517 62.7287 654.517 82.614C654.517 103.205 668.42 117.987 687.602 117.987C701.855 117.987 713.471 108.837 715.935 95.11L729.662 98.278C724.734 118.691 706.959 130.659 687.074 130.659Z" fill="white"/>
<path d="M615.848 20.3156C610.04 20.3156 605.816 15.9156 605.816 10.1076C605.816 4.47693 610.04 0.0769348 615.848 0.0769348C621.831 0.0769348 626.055 4.47693 626.055 10.1076C626.055 15.9156 621.831 20.3156 615.848 20.3156ZM608.984 128.371V48.6488H591.737V36.8582H622.887V128.371H608.984Z" fill="white"/>
<path d="M502.339 128.371V36.8582H516.241V50.2328H517.297C521.169 41.9622 531.025 34.5702 545.28 34.5702C566.573 34.5702 579.421 50.5848 579.421 70.8234V128.371H565.519V71.7048C565.519 57.0968 554.783 47.5928 541.936 47.5928C527.505 47.5928 516.243 58.6808 516.243 73.8154V128.371H502.339Z" fill="white"/>
<path d="M432.49 130.659C406.268 130.659 387.789 110.773 387.789 82.7914C387.789 54.6328 405.389 34.5701 431.434 34.5701C450.441 34.5701 459.944 46.8901 462.584 51.6408H463.64V36.8595H477.719V111.829C477.719 114.645 479.479 116.053 482.293 116.053H486.518V128.373H477.542C469.976 128.373 464.342 122.739 464.168 114.821V113.941H463.112C460.824 117.637 452.376 130.659 432.49 130.659ZM433.194 118.165C452.377 118.165 464.168 102.149 464.168 82.9674C464.168 60.2647 450.088 47.2408 433.018 47.2408C415.068 47.2408 402.045 62.0247 402.045 82.9674C402.045 104.261 415.594 118.165 433.194 118.165Z" fill="white"/>
<path d="M308.134 168.848V156.002H347.907C357.587 156.002 361.634 151.25 361.634 141.394V113.589H360.578C357.586 119.221 348.435 130.659 329.253 130.659C303.381 130.659 285.607 110.773 285.607 82.4393C285.607 54.4567 304.262 34.5701 330.309 34.5701C350.195 34.5701 358.818 47.9447 361.106 51.2901H362.162V36.8581H375.537V142.802C375.537 161.282 364.45 168.848 347.731 168.848H308.134ZM330.837 117.989C348.083 117.989 362.162 104.965 362.162 82.4393C362.162 63.2567 350.195 47.2407 331.189 47.2407C313.589 47.2407 299.862 60.9687 299.862 82.4393C299.862 103.381 312.887 117.989 330.837 117.989Z" fill="white"/>
<path d="M234.633 128.371V36.8582H248.359V52.1688H249.415C252.055 44.4261 261.033 34.5715 274.406 34.5715H280.39V48.4728H272.118C255.398 48.4728 248.535 62.0248 248.535 79.4461V128.371H234.633Z" fill="white"/>
<path d="M37.4277 128.371V36.8582H51.3304V50.2328H52.3864C56.2584 41.9622 66.113 34.5702 80.369 34.5702C101.662 34.5702 114.51 50.5848 114.51 70.8234V128.371H100.608V71.7048C100.608 57.0968 89.8716 47.5928 77.025 47.5928C62.5943 47.5928 51.3317 58.6808 51.3317 73.8154V128.371H37.4277Z" fill="white"/>
<rect x="0.984375" y="5.17957" width="16" height="123.192" rx="3" fill="white"/>
<path d="M163.161 114.091C150.012 109.265 140.647 96.6327 140.647 81.8314H126.684C126.684 102.675 139.879 120.419 158.351 127.199L163.161 114.091ZM140.647 81.8314C140.647 67.0314 150.012 54.3995 163.161 49.5728L158.349 36.4635C139.879 43.2435 126.684 60.9874 126.684 81.8314H140.647Z" fill="white"/>
<path d="M186.836 49.5715C199.985 54.3981 209.35 67.0301 209.35 81.8314H223.313C223.313 60.9874 210.118 43.2435 191.647 36.4635L186.836 49.5715ZM209.35 81.8314C209.35 96.6314 199.985 109.263 186.836 114.09L191.648 127.199C210.118 120.419 223.313 102.675 223.313 81.8314H209.35Z" fill="white"/>
<circle cx="174.999" cy="81.832" r="10.6126" fill="white"/>
</svg>
